<svg width="59" height="59" viewBox="0 0 59 59" fill="none" xmlns="http://www.w3.org/2000/svg">
<path d="M29.5 59C45.7924 59 59 45.7924 59 29.5C59 13.2076 45.7924 0 29.5 0C13.2076 0 0 13.2076 0 29.5C0 45.7924 13.2076 59 29.5 59Z" fill="white"/>
<path d="M29.9121 29.554L37.1491 22.317C37.1965 22.2693 37.2231 22.2046 37.2229 22.1373C37.2227 22.07 37.1958 22.0055 37.1481 21.958C37.1003 21.9105 37.0357 21.884 36.9684 21.8842C36.901 21.8843 36.8365 21.9113 36.7891 21.959L29.5541 29.197L22.3171 21.959C22.2696 21.9115 22.2052 21.8849 22.1381 21.8849C22.0709 21.8849 22.0065 21.9115 21.9591 21.959C21.9116 22.0065 21.8849 22.0709 21.8849 22.138C21.8849 22.2051 21.9116 22.2695 21.9591 22.317L29.1971 29.554L21.9591 36.789C21.934 36.8121 21.9139 36.8401 21.9 36.8712C21.886 36.9023 21.8785 36.9359 21.8779 36.97C21.8772 37.0041 21.8835 37.0379 21.8962 37.0696C21.909 37.1012 21.928 37.1299 21.9522 37.1539C21.9763 37.178 22.0051 37.197 22.0367 37.2096C22.0683 37.2223 22.1022 37.2285 22.1363 37.2277C22.1704 37.227 22.204 37.2194 22.235 37.2053C22.2661 37.1913 22.294 37.1711 22.3171 37.146L29.5541 29.912L36.7891 37.15C36.8365 37.1975 36.9009 37.2242 36.9681 37.2242C37.0352 37.2242 37.0996 37.1975 37.1471 37.15C37.1945 37.1025 37.2212 37.0381 37.2212 36.971C37.2212 36.9039 37.1945 36.8395 37.1471 36.792L29.9121 29.554Z" fill="#666666" stroke="#707070" stroke-width="3.89"/>
</svg>
