<svg width="338" height="338" viewBox="0 0 338 338" fill="none" xmlns="http://www.w3.org/2000/svg">
<g filter="url(#filter0_d)">
<path d="M159 278C230.245 278 288 220.245 288 149C288 77.7553 230.245 20 159 20C87.7553 20 30 77.7553 30 149C30 220.245 87.7553 278 159 278Z" fill="#5600E7"/>
</g>
<path d="M149.569 214.024C136.465 214.024 124.495 210.937 113.659 204.763C102.823 198.463 94.255 189.958 87.955 179.248C81.781 168.412 78.694 156.442 78.694 143.338C78.694 130.234 81.781 118.327 87.955 107.617C94.255 96.781 102.823 88.276 113.659 82.102C124.495 75.802 136.465 72.652 149.569 72.652C169.981 72.652 186.865 80.023 200.221 94.765L182.266 112.153C173.572 101.947 162.736 96.844 149.758 96.844C141.316 96.844 133.63 98.797 126.7 102.703C119.77 106.483 114.289 111.901 110.257 118.957C106.351 126.013 104.398 134.14 104.398 143.338C104.398 152.536 106.351 160.663 110.257 167.719C114.289 174.775 119.77 180.256 126.7 184.162C133.63 187.942 141.316 189.832 149.758 189.832C163.996 189.832 175.903 183.91 185.479 172.066L203.623 189.265C196.945 197.329 189.007 203.503 179.809 207.787C170.737 211.945 160.657 214.024 149.569 214.024Z" fill="white"/>
<path d="M142.092 165.784C139.511 165.784 137.208 165.212 135.183 164.069C133.158 162.893 131.573 161.309 130.43 159.316C129.319 157.291 128.764 155.02 128.764 152.505C128.764 150.022 129.319 147.768 130.43 145.743C131.573 143.718 133.158 142.133 135.183 140.99C137.208 139.814 139.511 139.226 142.092 139.226C144.64 139.226 146.927 139.814 148.952 140.99C150.977 142.133 152.545 143.718 153.656 145.743C154.799 147.768 155.371 150.022 155.371 152.505C155.371 155.02 154.799 157.291 153.656 159.316C152.545 161.309 150.977 162.893 148.952 164.069C146.927 165.212 144.64 165.784 142.092 165.784ZM142.092 159.855C143.333 159.855 144.477 159.561 145.522 158.973C146.567 158.385 147.4 157.536 148.021 156.425C148.642 155.314 148.952 154.008 148.952 152.505C148.952 151.035 148.642 149.745 148.021 148.634C147.4 147.523 146.567 146.674 145.522 146.086C144.477 145.498 143.333 145.204 142.092 145.204C140.851 145.204 139.707 145.498 138.662 146.086C137.617 146.674 136.767 147.523 136.114 148.634C135.493 149.745 135.183 151.035 135.183 152.505C135.183 153.975 135.493 155.282 136.114 156.425C136.767 157.536 137.617 158.385 138.662 158.973C139.707 159.561 140.851 159.855 142.092 159.855Z" fill="white"/>
<path d="M173.788 138.656H178.378V148.38H188.612V138.656H193.202V163H188.612V152.732H178.378V163H173.788V138.656ZM206.304 163.544C204.581 163.544 203.029 163.147 201.646 162.354C200.263 161.561 199.175 160.473 198.382 159.09C197.611 157.685 197.226 156.109 197.226 154.364C197.226 152.709 197.611 151.179 198.382 149.774C199.153 148.346 200.218 147.213 201.578 146.374C202.938 145.535 204.457 145.116 206.134 145.116C207.925 145.116 209.466 145.501 210.758 146.272C212.05 147.043 213.025 148.097 213.682 149.434C214.362 150.771 214.702 152.256 214.702 153.888C214.702 154.409 214.668 154.908 214.6 155.384H201.578C201.805 156.767 202.349 157.821 203.21 158.546C204.094 159.249 205.148 159.6 206.372 159.6C207.392 159.6 208.265 159.385 208.99 158.954C209.738 158.501 210.327 157.9 210.758 157.152L214.362 158.92C212.594 162.003 209.908 163.544 206.304 163.544ZM210.418 152.222C210.373 151.678 210.169 151.145 209.806 150.624C209.466 150.08 208.979 149.638 208.344 149.298C207.732 148.935 207.007 148.754 206.168 148.754C205.103 148.754 204.185 149.071 203.414 149.706C202.666 150.318 202.122 151.157 201.782 152.222H210.418ZM218.133 138.656H222.587V163H218.133V138.656ZM226.829 145.66H231.011V147.768H231.283C231.759 147.02 232.45 146.397 233.357 145.898C234.264 145.377 235.306 145.116 236.485 145.116C238.049 145.116 239.466 145.513 240.735 146.306C242.027 147.077 243.036 148.165 243.761 149.57C244.486 150.975 244.849 152.562 244.849 154.33C244.849 156.121 244.486 157.719 243.761 159.124C243.036 160.507 242.027 161.595 240.735 162.388C239.466 163.159 238.049 163.544 236.485 163.544C235.306 163.544 234.252 163.295 233.323 162.796C232.416 162.297 231.736 161.674 231.283 160.926H231.011L231.283 163.374V170.344H226.829V145.66ZM235.703 159.43C236.542 159.43 237.324 159.215 238.049 158.784C238.774 158.353 239.352 157.753 239.783 156.982C240.214 156.211 240.429 155.327 240.429 154.33C240.429 153.333 240.214 152.449 239.783 151.678C239.352 150.907 238.774 150.318 238.049 149.91C237.324 149.479 236.542 149.264 235.703 149.264C234.887 149.264 234.116 149.479 233.391 149.91C232.666 150.318 232.088 150.907 231.657 151.678C231.226 152.449 231.011 153.333 231.011 154.33C231.011 155.327 231.226 156.211 231.657 156.982C232.088 157.753 232.666 158.353 233.391 158.784C234.116 159.215 234.887 159.43 235.703 159.43Z" fill="white"/>
<defs>
<filter id="filter0_d" x="0" y="0" width="338" height="338" filterUnits="userSpaceOnUse" color-interpolation-filters="sRGB">
<feFlood flood-opacity="0" result="BackgroundImageFix"/>
<feColorMatrix in="SourceAlpha" type="matrix" values="0 0 0 0 0 0 0 0 0 0 0 0 0 0 0 0 0 0 127 0"/>
<feOffset dx="10" dy="20"/>
<feGaussianBlur stdDeviation="20"/>
<feColorMatrix type="matrix" values="0 0 0 0 0 0 0 0 0 0 0 0 0 0 0 0 0 0 0.161 0"/>
<feBlend mode="normal" in2="BackgroundImageFix" result="effect1_dropShadow"/>
<feBlend mode="normal" in="SourceGraphic" in2="effect1_dropShadow" result="shape"/>
</filter>
</defs>
</svg>
