<svg width="43" height="43" viewBox="0 0 43 43" fill="none" xmlns="http://www.w3.org/2000/svg">
<path d="M21.5999 42.4C33.3083 42.4 42.7999 32.9084 42.7999 21.2C42.7999 9.49156 33.3083 0 21.5999 0C9.89147 0 0.399902 9.49156 0.399902 21.2C0.399902 32.9084 9.89147 42.4 21.5999 42.4Z" fill="#28C937"/>
<path d="M18.527 30.386H18.513C18.2104 30.384 17.9116 30.3173 17.6369 30.1904C17.3621 30.0634 17.1177 29.8792 16.92 29.65L10.57 22.276C10.2031 21.8499 10.0205 21.2955 10.0623 20.7348C10.1041 20.1741 10.367 19.6529 10.793 19.286C11.2191 18.9191 11.7735 18.7364 12.3342 18.7782C12.8949 18.8201 13.4161 19.0829 13.783 19.509L18.547 25.042L29.433 12.729C29.8054 12.3077 30.3299 12.0516 30.8911 12.017C31.4523 11.9824 32.0042 12.1721 32.4255 12.5445C32.8468 12.9169 33.1029 13.4413 33.1375 14.0025C33.1721 14.5637 32.9824 15.1157 32.61 15.537L20.119 29.671C19.9194 29.8961 19.6743 30.0763 19.3999 30.1996C19.1254 30.3228 18.8279 30.3864 18.527 30.386Z" fill="white"/>
</svg>
