<svg width="42" height="42" viewBox="0 0 42 42" fill="none" xmlns="http://www.w3.org/2000/svg">
<path d="M21 42C32.598 42 42 32.598 42 21C42 9.40202 32.598 0 21 0C9.40202 0 0 9.40202 0 21C0 32.598 9.40202 42 21 42Z" fill="#FF0000"/>
<path d="M21.2933 21.0384L26.445 15.8867C26.4788 15.8527 26.4977 15.8067 26.4976 15.7588C26.4975 15.7108 26.4783 15.6649 26.4443 15.6311C26.4103 15.5973 26.3643 15.5784 26.3164 15.5786C26.2685 15.5787 26.2226 15.5979 26.1888 15.6318L21.0384 20.7843L15.8867 15.6318C15.8529 15.598 15.807 15.5791 15.7592 15.5791C15.7115 15.5791 15.6656 15.598 15.6318 15.6318C15.598 15.6656 15.579 15.7115 15.579 15.7593C15.579 15.8071 15.598 15.8529 15.6318 15.8867L20.7843 21.0384L15.6318 26.1888C15.614 26.2053 15.5997 26.2252 15.5898 26.2473C15.5798 26.2694 15.5745 26.2934 15.574 26.3176C15.5735 26.3419 15.578 26.366 15.5871 26.3885C15.5962 26.411 15.6097 26.4314 15.6269 26.4486C15.6441 26.4657 15.6646 26.4792 15.6871 26.4882C15.7096 26.4972 15.7337 26.5016 15.758 26.5011C15.7823 26.5006 15.8062 26.4951 15.8283 26.4851C15.8504 26.4752 15.8702 26.4608 15.8867 26.4429L21.0384 21.2933L26.1888 26.4458C26.2226 26.4796 26.2684 26.4985 26.3162 26.4985C26.364 26.4985 26.4098 26.4796 26.4436 26.4458C26.4774 26.412 26.4964 26.3661 26.4964 26.3183C26.4964 26.2706 26.4774 26.2247 26.4436 26.1909L21.2933 21.0384Z" fill="white" stroke="white" stroke-width="3.89"/>
</svg>
