<?xml version="1.0" encoding="UTF-8" standalone="no"?>
<svg
   xmlns:dc="http://purl.org/dc/elements/1.1/"
   xmlns:cc="http://creativecommons.org/ns#"
   xmlns:rdf="http://www.w3.org/1999/02/22-rdf-syntax-ns#"
   xmlns:svg="http://www.w3.org/2000/svg"
   xmlns="http://www.w3.org/2000/svg"
   xmlns:sodipodi="http://sodipodi.sourceforge.net/DTD/sodipodi-0.dtd"
   xmlns:inkscape="http://www.inkscape.org/namespaces/inkscape"
   height="580.08002"
   width="1715.63"
   inkscape:version="1.0 (4035a4fb49, 2020-05-01)"
   sodipodi:docname="illustration.svg"
   id="svg90"
   version="1.1"
   fill="#bcbec0"
   viewBox="0 0 1715.63 580.08">
  <metadata
     id="metadata96">
    <rdf:RDF>
      <cc:Work
         rdf:about="">
        <dc:format>image/svg+xml</dc:format>
        <dc:type
           rdf:resource="http://purl.org/dc/dcmitype/StillImage" />
        <dc:title></dc:title>
      </cc:Work>
    </rdf:RDF>
  </metadata>
  <defs
     id="defs94" />
  <sodipodi:namedview
     inkscape:current-layer="svg90"
     inkscape:window-maximized="1"
     inkscape:window-y="-9"
     inkscape:window-x="-9"
     inkscape:cy="246.28156"
     inkscape:cx="895.37102"
     inkscape:zoom="0.81027863"
     showgrid="false"
     id="namedview92"
     inkscape:window-height="1011"
     inkscape:window-width="1920"
     inkscape:pageshadow="2"
     inkscape:pageopacity="0"
     guidetolerance="10"
     gridtolerance="10"
     objecttolerance="10"
     borderopacity="1"
     bordercolor="#666666"
     pagecolor="#ffffff" />
  <g
     transform="rotate(-2,1501.8821,5.4741764)"
     id="g1011">
    <path
       d="m 1535.83,145.26 -6.64,1.54 -1.54,-6.63 -3.84,0.89 1.54,6.63 -6.65,1.55 0.89,3.84 6.65,-1.54 1.54,6.64 3.84,-0.89 -1.54,-6.65 6.64,-1.54 z m 62.88,82.37 -19.84,-85.45 -32.11,7.45 -4.94,-21.28 -36,8.34 5,21.29 -32.11,7.45 19.85,85.45 -7.54,1.75 0.89,3.84 49,-11.39 17.12,-4 49.06,-11.39 -0.9,-3.84 -7.53,1.75 z m -22.79,-80.72 18.95,81.61 -28.27,6.56 -18.95,-81.61 z m -92.47,21.47 28.26,-6.56 19,81.61 -28.31,6.57 z m 60.46,72 -5.73,-24.67 a 4.85,4.85 0 1 1 9.44,-2.19 l 5.73,24.67 z m -3,-34.33 a 8.8,8.8 0 0 0 -6.58,10.55 l 5.73,24.67 -5.57,1.3 -19.84,-85.45 -4.05,-17.45 28.26,-6.56 4.05,17.44 19.85,85.45 -5.57,1.3 -5.73,-24.68 A 8.79,8.79 0 0 0 1540.92,206 Z m -1.57,-45.68 -17.12,4 4,17.12 17.12,-4 z m -0.76,14.17 -9.44,2.19 -2.19,-9.44 9.44,-2.19 z m 5.83,7.66 -17.12,4 4,17.12 17.12,-4 z m -0.76,14.17 -9.44,2.19 -2.19,-9.43 9.44,-2.19 z m 27.79,-43.45 -17.12,4 4,17.12 17.12,-4 z m -0.76,14.17 -9.43,2.19 -2.2,-9.44 9.44,-2.19 z m 5.83,7.66 -17.12,4 4,17.12 17.11,-4 z m -0.76,14.17 -9.43,2.19 -2.2,-9.44 9.44,-2.19 z m 5.83,7.66 -17.12,4 4,17.12 17.11,-4 z m -0.76,14.17 -9.43,2.19 -2.2,-9.44 9.44,-2.19 z m -90.71,-38.95 4,17.12 17.12,-4 -4,-17.12 z m 16.36,10.2 -9.43,2.19 -2.2,-9.44 9.44,-2.19 z m -7.31,28.75 17.12,-4 -4,-17.12 -17.12,4 z m 0.75,-14.17 9.44,-2.19 2.19,9.44 -9.43,2.19 z m 4.32,36.01 17.12,-4 -4,-17.12 -17.12,4 z m 0.75,-14.18 9.44,-2.19 2.19,9.44 -9.43,2.19 z m 215.08,-28.82 c -3,-4.08 -9.48,-5.9 -17.9,-5 l -25.55,-11 a 30.43,30.43 0 0 0 -9.93,-2.41 l -27.72,-2 c -7.09,-4.64 -13.7,-6 -18.21,-3.75 a 8.08,8.08 0 0 0 -4.51,7.07 c -0.25,5.52 4,11.61 11.38,16.4 7.25,14.42 15.1,23.66 33.18,28.06 18.08,4.4 29.29,-0.2 42.34,-9.68 8.78,-0.85 15.36,-4.31 17.67,-9.34 a 8.09,8.09 0 0 0 -0.75,-8.35 z m -99,-16.87 a 3.3,3.3 0 0 1 1.87,-3 c 2,-1 5.81,-0.84 11.09,2.06 l -6.17,11.38 c -5.14,-3.98 -6.93,-7.98 -6.85,-10.44 z m 40.9,39.57 c -16.46,-4 -23.34,-12.16 -30.14,-25.79 a 2.33,2.33 0 0 0 -0.14,-0.33 l 6.62,-12.23 28.07,2 a 25.75,25.75 0 0 1 8.37,2 l 25.85,11.11 0.27,13.92 -0.23,0.18 c -12.35,9.05 -22.22,13.15 -38.7,9.14 z m 54.53,-16.36 c -1,2.24 -4.47,5 -10.85,6.17 l -0.24,-12.95 c 6,-0.15 9.51,1.48 10.81,3.27 a 3.29,3.29 0 0 1 0.25,3.51 z m -53.26,11.01 c -11,-2.69 -16.32,-6.26 -21.71,-11.52 a 2.4,2.4 0 0 1 3.35,-3.43 c 4.91,4.79 9.48,7.85 19.5,10.29 10.02,2.44 15.48,1.81 22,-0.19 a 2.4,2.4 0 1 1 1.4,4.59 c -7.16,2.2 -13.5,2.95 -24.54,0.26 z m 2.24,-9.18 c -8.54,-2.07 -12.77,-4.28 -17.2,-7.38 a 2.4011716,2.4011716 0 0 1 2.76,-3.93 c 4,2.84 7.73,4.74 15.57,6.65 7.84,1.91 12,1.91 16.89,1.25 a 2.4,2.4 0 1 1 0.64,4.75 c -5.35,0.73 -10.13,0.74 -18.66,-1.34 z m 14.88,-8.04 a 2.56,2.56 0 0 1 -0.58,-0.22 54.19,54.19 0 0 0 -23.21,-5.65 2.4004218,2.4004218 0 0 1 -0.09,-4.8 59,59 0 0 1 25.58,6.23 2.4,2.4 0 0 1 -1.7,4.44 z m -65.3,-112.66 -4.44,-2 2,-4.44 a 1.7524911,1.7524911 0 1 0 -3.2,-1.43 l -2,4.43 -4.44,-2 a 1.7524911,1.7524911 0 0 0 -1.43,3.2 l 4.43,2 -2,4.44 a 1.76,1.76 0 0 0 3.21,1.43 l 2,-4.43 4.44,2 a 1.755,1.755 0 0 0 1.44,-3.2 z m 44.95,33 -8.87,-23.29 4.36,-9.72 a 8.91,8.91 0 0 0 0.72,-4.64 l -2.78,-24.12 a 5.34,5.34 0 0 1 0.43,-2.79 l 2.33,-5.2 a 6.29,6.29 0 0 0 6.66,-3.63 l 3.29,-7.31 A 6.3,6.3 0 0 0 1663,21 L 1633.33,7.75 a 6.3,6.3 0 0 0 -8.32,3.17 l -3.28,7.31 a 6.3,6.3 0 0 0 1.72,7.39 l -2.33,5.2 a 5.17,5.17 0 0 1 -0.48,0.82 l -0.05,0.07 a 5.19,5.19 0 0 1 -1.27,1.29 l -19.87,14 a 8.9,8.9 0 0 0 -3,3.62 L 1578.35,91 a 6.64,6.64 0 0 0 3.34,8.76 l 46.9,21 a 6.61,6.61 0 0 0 6.62,-0.7 13.36,13.36 0 0 0 24.77,-10 z m -35,-90.39 3.28,-7.32 a 2.79,2.79 0 0 1 3.68,-1.4 l 29.62,13.29 a 2.78,2.78 0 0 1 1.4,3.68 l -3.28,7.31 a 2.79,2.79 0 0 1 -3.68,1.41 L 1626.4,23.35 a 2.79,2.79 0 0 1 -1.47,-3.68 z m -3.59,16.2 a 8.3,8.3 0 0 0 1.18,-1 l 16.35,7.34 a 1.76,1.76 0 0 0 1.44,-3.21 l -15.82,-7.09 2.06,-4.59 26.32,11.81 -2.23,5 a 8.87,8.87 0 0 0 -0.72,4.63 l 2.78,24.13 a 4.7,4.7 0 0 1 0,1.06 l -52,-23.34 a 6,6 0 0 1 0.8,-0.71 z m 8.69,81.7 -46.91,-21 a 3.13,3.13 0 0 1 -1.57,-4.13 l 2.2,-4.88 30.94,13.88 a 1.755,1.755 0 0 0 1.44,-3.2 l -31,-13.88 13.8,-30.74 52.6,23.59 -2.35,5.25 a 13.37,13.37 0 0 0 -23.83,11.84 l 8.46,22.25 a 3.11,3.11 0 0 1 -3.88,1.02 z m 21,6.46 a 9.87,9.87 0 0 1 -12.73,-5.71 l -4.18,-11 11.27,-4.29 a 1.76,1.76 0 1 0 -1.25,-3.28 l -11.27,4.29 -4.19,-11 a 9.87,9.87 0 0 1 18.44,-7 l 9.62,25.27 A 9.86,9.86 0 0 1 1651,124 Z M 1491.41,107 a 20,20 0 0 1 -15.77,-23.49 l 0.65,-3.32 a 1.6,1.6 0 1 1 3.13,0.62 l -0.65,3.31 a 16.82,16.82 0 0 0 33,6.49 l 4.15,-21.11 a 12.870145,12.870145 0 0 1 25.25,5 l -1.08,5.5 a 1.6003125,1.6003125 0 1 1 -3.14,-0.62 l 1.08,-5.51 a 9.6813338,9.6813338 0 1 0 -19,-3.73 l -4.14,21.1 A 20,20 0 0 1 1491.41,107 Z m 12.81,-49.64 v 0 a 1.61,1.61 0 0 1 -1.25,-1.89 l 6.26,-31.36 a 6.07,6.07 0 0 0 -4.77,-7.12 1.5944435,1.5944435 0 0 1 0.61,-3.13 9.27,9.27 0 0 1 7.3,10.87 l -6.27,31.37 a 1.59,1.59 0 0 1 -1.88,1.26 z m -42,-8.26 a 1.59,1.59 0 0 1 -1.26,-1.87 L 1467,15.82 a 9.26,9.26 0 0 1 10.87,-7.3 1.6,1.6 0 1 1 -0.62,3.13 6.09,6.09 0 0 0 -7.12,4.78 l -6.06,31.41 a 1.6,1.6 0 0 1 -1.88,1.26 z"
       id="path2" />
    <path
       d="m 1482.38,83 -9.67,-1.9 a 1.6,1.6 0 0 1 -1.26,-1.88 l 0.77,-3.92 a 26.31,26.31 0 0 1 -14.43,-28.73 1.6,1.6 0 0 1 1.88,-1.26 l 6.82,1.35 a 1.59,1.59 0 0 1 1.26,1.87 16.08,16.08 0 0 0 31.55,6.2 1.59,1.59 0 0 1 1.87,-1.26 l 6.83,1.34 a 1.6,1.6 0 0 1 1.26,1.88 26.33,26.33 0 0 1 -24.26,21.16 l -0.77,3.92 a 1.6,1.6 0 0 1 -1.85,1.23 z m -7.48,-4.73 6.53,1.28 0.71,-3.6 a 1.61,1.61 0 0 1 1.56,-1.29 23.08,23.08 0 0 0 22.06,-17 l -3.7,-0.73 a 19.27,19.27 0 0 1 -37.69,-7.4 l -3.69,-0.73 a 23.07,23.07 0 0 0 14,24.11 1.62,1.62 0 0 1 1,1.79 z m 59.95,20.07 a 10.31,10.31 0 1 1 12.1,-8.13 10.32,10.32 0 0 1 -12.1,8.13 z m 3.36,-17.09 a 7.11,7.11 0 1 0 5.6,8.34 7.12,7.12 0 0 0 -5.6,-8.34 z"
       id="path4" />
    <circle
       cx="1536.84"
       cy="88.220001"
       r="3.53"
       id="circle6" />
    <path
       d="m 1442.72,148.48 c -6.33,1.82 -13.06,-2.22 -15,-9 a 13,13 0 0 1 2.63,-12.24 L 1415.9,76.87 a 6.0342543,6.0342543 0 1 1 11.6,-3.33 l 14.5,50.36 a 13,13 0 0 1 8.72,9 c 1.89,6.77 -1.67,13.77 -8,15.58 z m -22.3,-77.73 a 4.5,4.5 0 0 0 -2.88,5.65 l 14.75,51.41 -0.37,0.37 a 11.09,11.09 0 0 0 -2.56,10.82 c 1.66,5.81 7.43,9.27 12.85,7.72 5.42,-1.55 8.48,-7.55 6.81,-13.36 a 11.08,11.08 0 0 0 -7.91,-7.82 L 1440.6,125.42 1425.85,74 a 4.49,4.49 0 0 0 -5.43,-3.25 z m 17.58,58.14 -6.47,-22.54 a 0.86,0.86 0 1 0 -1.64,0.48 l 6.46,22.53 a 6.94,6.94 0 1 0 1.65,-0.47 z"
       id="path8" />
    <path
       d="m 1428.2,97.87 -5,1.43 a 0.92100489,0.92100489 0 0 1 -0.51,-1.77 l 5,-1.43 a 0.92100489,0.92100489 0 0 1 0.51,1.77 z m -4.87,-7.6 -2.49,0.72 a 0.92100489,0.92100489 0 0 1 -0.51,-1.77 l 2.49,-0.71 a 0.88,0.88 0 0 1 1.08,0.64 0.89,0.89 0 0 1 -0.57,1.12 z m 0.1,-9.02 -5,1.43 a 0.92,0.92 0 0 1 -0.5,-1.77 l 5,-1.43 a 0.92100489,0.92100489 0 0 1 0.51,1.77 z m -36.8,-15.34 h -7.93 a 1.45,1.45 0 0 0 -1.46,1.45 v 4.52 h -5 a 28,28 0 0 0 -4.38,-10.57 l 3.5,-3.5 3.24,3.19 a 1.47,1.47 0 0 0 2.07,0 l 5.61,-5.61 a 1.49,1.49 0 0 0 0.42,-1 1.45,1.45 0 0 0 -0.42,-1 l -14,-14 a 1.45,1.45 0 0 0 -2.06,0 l -5.6,5.61 a 1.48,1.48 0 0 0 -0.43,1 1.46,1.46 0 0 0 0.43,1 l 3.19,3.19 -3.5,3.51 a 28.07,28.07 0 0 0 -10.57,-4.39 v -4.93 h 4.51 a 1.46,1.46 0 0 0 1.46,-1.46 V 35 a 1.45,1.45 0 0 0 -1.46,-1.45 h -19.77 A 1.45,1.45 0 0 0 1333,35 v 7.94 a 1.46,1.46 0 0 0 1.46,1.46 h 4.54 v 4.94 a 28.07,28.07 0 0 0 -10.57,4.39 l -3.5,-3.51 3.19,-3.19 a 1.45,1.45 0 0 0 0,-2.06 l -5.61,-5.61 a 1.45,1.45 0 0 0 -2.06,0 l -14,14 a 1.45,1.45 0 0 0 -0.42,1 1.49,1.49 0 0 0 0.42,1 l 5.62,5.61 a 1.45,1.45 0 0 0 2.06,0 l 3.19,-3.19 3.5,3.5 a 28,28 0 0 0 -4.38,10.57 h -5 v -4.48 a 1.46,1.46 0 0 0 -1.46,-1.46 h -7.93 a 1.46,1.46 0 0 0 -1.46,1.46 v 19.77 a 1.46,1.46 0 0 0 1.46,1.46 h 7.95 a 1.46,1.46 0 0 0 1.46,-1.46 v -4.51 h 5 a 28.16,28.16 0 0 0 4.38,10.56 l -3.5,3.51 -3.19,-3.19 a 1.49,1.49 0 0 0 -2.06,0 l -5.61,5.61 a 1.45,1.45 0 0 0 0,2.06 l 14,14 a 1.45,1.45 0 0 0 2.06,0 l 5.61,-5.61 a 1.45,1.45 0 0 0 0,-2.06 l -3.19,-3.19 3.5,-3.5 a 28.28,28.28 0 0 0 10.57,4.38 v 4.95 h -4.51 a 1.46,1.46 0 0 0 -1.46,1.46 v 7.93 a 1.46,1.46 0 0 0 1.46,1.46 h 19.77 a 1.46,1.46 0 0 0 1.46,-1.46 v -7.93 a 1.46,1.46 0 0 0 -1.46,-1.46 h -4.51 v -4.95 a 28.21,28.21 0 0 0 10.57,-4.38 l 3.5,3.5 -3.19,3.19 a 1.45,1.45 0 0 0 0,2.06 l 5.61,5.61 a 1.45,1.45 0 0 0 1,0.43 1.43,1.43 0 0 0 1,-0.43 l 14,-14 a 1.45,1.45 0 0 0 0,-2.06 l -5.61,-5.61 a 1.45,1.45 0 0 0 -2.06,0 l -3.2,3.19 -3.5,-3.51 a 27.84,27.84 0 0 0 4.38,-10.56 h 5 v 4.51 a 1.47,1.47 0 0 0 1.46,1.46 h 7.93 a 1.46,1.46 0 0 0 1.46,-1.46 V 67.36 a 1.45,1.45 0 0 0 -1.5,-1.45 z m -46.18,-24.45 h -4.51 v -5 h 16.86 v 5 h -4.52 a 1.45,1.45 0 0 0 -1.45,1.46 v 6 l -2.46,-0.11 -2.46,0.11 v -6 a 1.46,1.46 0 0 0 -1.46,-1.46 z M 1310,79.71 a 1.46,1.46 0 0 0 -1.45,1.46 v 4.51 h -5 V 68.82 h 5 v 4.51 a 1.45,1.45 0 0 0 1.45,1.46 h 6 l -0.11,2.46 0.11,2.46 z m 38.28,33.29 h 4.52 v 5 h -16.86 v -5 h 4.51 a 1.46,1.46 0 0 0 1.46,-1.45 v -6 l 2.46,0.11 2.46,-0.11 v 6 a 1.45,1.45 0 0 0 1.45,1.45 z m 24.16,-13.25 3.19,-3.19 3.55,3.55 -11.92,11.92 -3.55,-3.55 3.19,-3.19 a 1.45,1.45 0 0 0 0,-2.06 l -5.39,-5.39 v 0 a 1.36,1.36 0 0 0 -0.43,-0.29 v 0 a 1.37,1.37 0 0 0 -0.49,-0.09 h -0.06 a 1.36,1.36 0 0 0 -0.48,0.09 h -0.07 a 2.28,2.28 0 0 0 -0.3,0.17 25.54,25.54 0 0 1 -30.49,0 1.78,1.78 0 0 0 -0.3,-0.17 h -0.06 a 1.41,1.41 0 0 0 -0.49,-0.09 v 0 a 1.24,1.24 0 0 0 -0.5,0.1 v 0 a 1.25,1.25 0 0 0 -0.44,0.29 v 0 l -5.39,5.39 a 1.45,1.45 0 0 0 0,2.06 l 3.19,3.19 -3.55,3.55 -11.92,-11.92 3.55,-3.55 3.19,3.19 a 1.45,1.45 0 0 0 2.06,0 l 5.39,-5.39 A 1.48,1.48 0 0 0 1324,94 v -0.06 a 1.94,1.94 0 0 0 0.09,-0.48 v -0.07 a 1.36,1.36 0 0 0 -0.09,-0.48 0.14,0.14 0 0 1 0,-0.06 1.46,1.46 0 0 0 -0.17,-0.3 25.54,25.54 0 0 1 0,-30.49 1.87,1.87 0 0 0 0.17,-0.31 V 61.7 a 1.43,1.43 0 0 0 0.09,-0.5 v 0 a 1.19,1.19 0 0 0 -0.1,-0.49 1.4,1.4 0 0 0 -0.29,-0.44 v 0 l -5.39,-5.39 a 1.47,1.47 0 0 0 -2.06,0 l -3.19,3.2 -3.55,-3.55 11.92,-11.93 3.57,3.4 -3.19,3.19 a 1.47,1.47 0 0 0 0,2.07 l 5.39,5.39 v 0 a 1.33,1.33 0 0 0 0.43,0.28 h 0.06 a 1.32,1.32 0 0 0 0.48,0.09 h 0.06 a 1.38,1.38 0 0 0 0.49,-0.1 h 0.06 a 1.28,1.28 0 0 0 0.3,-0.17 25.54,25.54 0 0 1 30.49,0 2.39,2.39 0 0 0 0.22,0.12 l 0.15,0.07 a 1.44,1.44 0 0 0 0.5,0.1 v 0 A 1.69,1.69 0 0 0 1361,57 h 0.08 a 1.62,1.62 0 0 0 0.42,-0.28 v 0 l 5.39,-5.39 a 1.42,1.42 0 0 0 0.43,-1 1.45,1.45 0 0 0 -0.43,-1 l -3.18,-3.33 3.55,-3.55 11.93,11.93 -3.55,3.54 -3.19,-3.19 a 1.47,1.47 0 0 0 -2.07,0 L 1365,60.1 a 1.6,1.6 0 0 0 -0.29,0.44 v 0 a 1.58,1.58 0 0 0 -0.1,0.49 v 0.06 a 1.37,1.37 0 0 0 0.1,0.48 0.14,0.14 0 0 0 0,0.06 1.11,1.11 0 0 0 0.17,0.3 25.59,25.59 0 0 1 0,30.5 1.11,1.11 0 0 0 -0.17,0.3 0.14,0.14 0 0 0 0,0.06 1.38,1.38 0 0 0 -0.1,0.49 v 0.05 a 1.58,1.58 0 0 0 0.1,0.49 0.14,0.14 0 0 1 0,0.06 1.71,1.71 0 0 0 0.29,0.43 l 5.39,5.39 a 1.45,1.45 0 0 0 2.05,0.09 z m 12.74,-14.11 h -5 v -4.47 a 1.47,1.47 0 0 0 -1.46,-1.46 h -6 l 0.11,-2.46 -0.11,-2.46 h 6 a 1.46,1.46 0 0 0 1.46,-1.46 v -4.51 h 5 z m -48.77,-8.17 a 8.11,8.11 0 1 1 8.11,-8.11 8.12,8.12 0 0 1 -8.11,8.11 z m 0,-13.31 a 5.2,5.2 0 1 0 5.2,5.2 5.21,5.21 0 0 0 -5.2,-5.2 z M 1352.25,93 a 6.85,6.85 0 1 1 6.84,-6.85 6.86,6.86 0 0 1 -6.84,6.85 z m 0,-10.78 a 3.93,3.93 0 1 0 3.93,3.93 3.93,3.93 0 0 0 -3.93,-3.91 z m 48.95,189.2 a 14,14 0 0 1 -2.87,-0.87 l -10.12,-4.34 a 16.19,16.19 0 0 0 -3.41,-1 l -13.46,-2.53 a 1,1 0 0 1 -0.78,-1.13 l 2.43,-12.94 a 0.91,0.91 0 0 1 0.41,-0.62 0.92,0.92 0 0 1 0.72,-0.15 v 0 l 10.86,2.12 a 2,2 0 0 0 1.23,-0.22 30,30 0 0 1 15.1,-4.78 c 4.3,-0.14 9,-1.68 14.33,-4.68 a 3.82,3.82 0 0 1 4.77,0.85 3.83,3.83 0 0 1 -0.47,5.41 c -4.71,3.88 -8.88,6.45 -12.72,7.83 5.12,4.74 17.61,4.86 26.89,4.94 a 4.16,4.16 0 0 1 0.86,8.21 l -22.38,4.86 a 13.66,13.66 0 0 1 -5.33,0.13 l -5.87,-1 z m -28.55,-10.51 12.51,2.35 a 17.47,17.47 0 0 1 3.81,1.16 l 10.13,4.34 a 12.22,12.22 0 0 0 2.63,0.78 l 5.87,1 v 0 a 12,12 0 0 0 4.58,-0.11 l 22.38,-4.87 a 2.2,2.2 0 0 0 -0.46,-4.35 c -10.33,-0.1 -24.47,-0.23 -29.38,-6.77 a 1,1 0 0 1 0.51,-1.53 c 4,-1.13 8.38,-3.72 13.48,-7.93 a 1.81,1.81 0 0 0 0.66,-1.26 1.85,1.85 0 0 0 -2.77,-1.79 c -5.62,3.16 -10.6,4.77 -15.21,4.93 -5.93,0.27 -9.69,1.86 -14.18,4.51 a 3.71,3.71 0 0 1 -2.56,0.45 v 0 l -9.9,-1.93 z M 1429,243.82 a 1,1 0 0 1 -0.78,-1.14 l 3.17,-16.87 a 1,1 0 1 1 1.91,0.36 l -3.18,16.83 a 1,1 0 0 1 -1.12,0.82 z"
       id="path10" />
    <path
       d="m 1455,281.4 -26,-4.88 a 1,1 0 0 1 -0.75,-1.23 l 2.44,-8.36 a 1,1 0 0 1 1.21,-0.66 1,1 0 0 1 0.66,1.21 l -2.14,7.33 23.89,4.48 3.17,-36.46 a 4.64,4.64 0 0 0 -3.77,-5 l -7.71,-1.45 a 4.63,4.63 0 0 0 -5.31,3.26 l -6.09,20.84 a 1,1 0 0 1 -1.21,0.66 1,1 0 0 1 -0.66,-1.21 l 6.09,-20.83 a 6.57,6.57 0 0 1 7.54,-4.63 l 7.71,1.45 a 6.56,6.56 0 0 1 5.35,7 l -3.26,37.53 a 1,1 0 0 1 -1.15,0.87 z"
       id="path12" />
    <path
       d="m 1453.43,237.81 -7.11,-1.33 a 1,1 0 0 1 -0.78,-1.14 l 2.07,-11 a 1,1 0 0 1 1.13,-0.78 l 7.12,1.34 a 1,1 0 0 1 0.78,1.13 l -2.07,11 a 1,1 0 0 1 -1.14,0.78 z m -5.79,-3.07 5.2,1 1.7,-9.09 -5.2,-1 z"
       id="path14" />
    <path
       d="m 1461.92,228 -29.63,-5.57 a 1,1 0 0 1 -0.33,-1.78 l 6.62,-4.14 a 1,1 0 0 1 0.7,-0.13 l 24,4.5 A 1,1 0 0 1 1464,222 l -1,5.2 a 1,1 0 0 1 -1.08,0.8 z m -26.82,-7 26.22,4.92 0.62,-3.28 -22.65,-4.26 z m -8.1,33.38 a 1,1 0 0 1 -0.78,-1.13 l 1.1,-5.89 a 1,1 0 1 1 1.92,0.36 l -1.11,5.89 a 1,1 0 0 1 -1.13,0.77 z m -6.1,-28.82 a 3.83,3.83 0 0 1 -2.25,-1.32 c -3.89,-4.74 -7.7,-7.87 -11.64,-9.56 -5.8,-2.57 -9,-5.71 -12.35,-9.93 a 1.78,1.78 0 0 0 -1.05,-0.65 v 0 l -10.9,-2 v 0 a 1,1 0 0 1 -0.78,-1.14 l 2.43,-12.93 a 1,1 0 0 1 1.14,-0.78 l 13.46,2.53 a 16.25,16.25 0 0 0 3.55,0.27 l 11,-0.37 a 13.62,13.62 0 0 1 3.19,0.27 l 5.84,1.18 a 13.68,13.68 0 0 1 4.92,2.06 l 19.08,12.64 a 4.16,4.16 0 0 1 -3.78,7.34 c -8.67,-3.29 -20.36,-7.71 -26.84,-5.14 3.07,2.67 6,6.58 9,11.9 a 3.81,3.81 0 0 1 -1.52,5.21 3.76,3.76 0 0 1 -2.5,0.42 z M 1394,202.19 a 3.68,3.68 0 0 1 2.22,1.35 c 3.22,4.1 6.15,6.94 11.59,9.35 4.23,1.82 8.28,5.12 12.38,10.11 a 1.86,1.86 0 0 0 3.07,-2.09 c -3.23,-5.76 -6.4,-9.78 -9.68,-12.27 a 1,1 0 0 1 -0.38,-0.82 1,1 0 0 1 0.45,-0.79 c 7,-4.32 20.18,0.69 29.83,4.34 a 2.2,2.2 0 0 0 2,-3.89 l -19.08,-12.64 a 11.69,11.69 0 0 0 -4.23,-1.77 l -5.84,-1.18 a 11.37,11.37 0 0 0 -2.73,-0.23 l -11,0.37 a 18.87,18.87 0 0 1 -4,-0.3 l -12.51,-2.35 -2.06,11 9.92,1.79 z m -111.31,-19.39 -6.64,1.54 -1.54,-6.63 -3.84,0.89 1.54,6.63 -6.65,1.55 0.9,3.84 6.64,-1.55 1.54,6.65 3.84,-0.9 -1.54,-6.64 6.65,-1.54 z m 62.88,82.36 -19.84,-85.45 -32.11,7.46 -4.94,-21.29 -35.94,8.35 4.94,21.28 -32.11,7.49 19.85,85.45 -7.54,1.75 0.89,3.84 49.06,-11.39 17.11,-4 49.06,-11.4 -0.89,-3.84 z m -22.79,-80.71 19,81.6 -28.26,6.57 -19,-81.61 z m -92.47,21.47 28.26,-6.56 19,81.6 -28.26,6.57 z m 60.47,72 -5.73,-24.68 a 4.8404803,4.8404803 0 1 1 9.43,-2.19 l 5.73,24.68 -9.44,2.19 z m -3,-34.33 a 8.81,8.81 0 0 0 -6.58,10.55 l 5.73,24.67 -5.57,1.29 -19.84,-85.45 -4,-17.44 28.26,-6.56 4,17.44 19.84,85.45 -5.57,1.29 -5.73,-24.67 a 8.78,8.78 0 0 0 -10.54,-6.6 z m -1.58,-45.68 -17.12,4 4,17.12 17.12,-4 z m -0.76,14.17 -9.44,2.19 -2.19,-9.44 9.44,-2.19 z m 5.83,7.66 -17.12,4 4,17.12 17.12,-4 z m -0.76,14.17 -9.44,2.19 -2.19,-9.44 9.44,-2.19 z m 27.79,-43.46 -17.12,4 4,17.12 17.12,-4 z m -0.76,14.17 -9.43,2.19 -2.19,-9.43 9.43,-2.2 z m 5.83,7.66 -17.12,4 4,17.12 17.12,-4 z m -0.76,14.18 -9.43,2.19 -2.19,-9.44 9.43,-2.19 z m 5.83,7.66 -17.12,4 4,17.12 17.12,-4 z m -0.76,14.17 -9.43,2.19 -2.19,-9.44 9.43,-2.19 z m -90.68,-38.95 4,17.12 17.12,-4 -4,-17.12 z m 16.37,10.19 -9.44,2.19 -2.19,-9.43 9.43,-2.2 z m -7.37,28.76 17.12,-4 -4,-17.12 -17.12,4 z m 0.76,-14.17 9.43,-2.19 2.2,9.44 -9.44,2.19 z m 4.33,36 17.12,-4 -4,-17.12 -17.12,4 z m 0.76,-14.17 9.43,-2.19 2.2,9.44 -9.44,2.19 z M 1365,150.69 c -2.89,-3.11 -8.88,-4.73 -16.48,-4.49 l -23.71,-9.2 a 35.87,35.87 0 0 0 -9.12,-2.22 l -25.24,-2.74 c -6.65,-3.7 -12.71,-5 -16.7,-3.58 a 5.15,5.15 0 0 0 -3.76,4.93 c 0,4 4.17,8.62 11.1,12.45 7.24,10.81 14.8,17.89 31.4,21.93 16.6,4.04 26.56,1.23 38,-5.05 7.93,-0.21 13.74,-2.42 15.6,-6 a 5.13,5.13 0 0 0 -1.09,-6.03 z m -90.63,-16.89 a 2.08,2.08 0 0 1 1.55,-2.09 c 1.74,-0.63 5.24,-0.34 10.16,2 l -5.06,8 c -4.84,-3.14 -6.66,-6.12 -6.67,-7.91 z m 39,30.67 c -15.12,-3.68 -21.74,-9.93 -28.55,-20.15 a 1.23,1.23 0 0 0 -0.14,-0.25 l 5.44,-8.57 25.56,2.77 a 29.94,29.94 0 0 1 7.68,1.87 l 24,9.28 0.89,10.12 a 1.37,1.37 0 0 0 -0.2,0.13 c -10.85,5.96 -19.61,8.48 -34.75,4.8 z m 48.7,-9.34 c -0.83,1.58 -3.81,3.4 -9.55,4 l -0.83,-9.42 c 5.47,0.17 8.71,1.52 10,2.88 a 2.06,2.06 0 0 1 0.31,2.54 z m -47.84,5.51 c -10.14,-2.47 -15.09,-5.31 -20.23,-9.39 a 1.52,1.52 0 0 1 -0.2,-2.46 2.57,2.57 0 0 1 3.08,0.13 c 4.68,3.71 9,6.14 18.17,8.38 9.17,2.24 14.12,2 20,0.9 a 2.58,2.58 0 0 1 2.79,1.3 1.52,1.52 0 0 1 -1.31,2.1 c -6.44,1.26 -12.15,1.5 -22.3,-0.96 z m 1.6,-6.56 c -7.84,-1.91 -11.78,-3.71 -15.94,-6.17 a 1.63,1.63 0 0 1 -0.69,-2.46 2.46,2.46 0 0 1 3,-0.27 c 3.8,2.26 7.23,3.81 14.43,5.56 7.2,1.75 11,1.95 15.38,1.7 a 2.43,2.43 0 0 1 2.54,1.61 c 0.23,1 -0.55,1.8 -1.74,1.87 -4.81,0.28 -9.14,0.08 -16.98,-1.84 z m 13.17,-5.15 a 3.75,3.75 0 0 1 -0.53,-0.19 48.8,48.8 0 0 0 -10.43,-3.52 49.47,49.47 0 0 0 -10.89,-1.67 2.32,2.32 0 0 1 -2.33,-1.82 c -0.08,-1 0.83,-1.71 2,-1.67 a 54.78,54.78 0 0 1 12,1.83 53.87,53.87 0 0 1 11.49,3.89 1.73,1.73 0 0 1 1,2.41 2.21,2.21 0 0 1 -2.31,0.74 z m -114.86,-72.34 -4.43,-2 2,-4.43 a 1.755,1.755 0 1 0 -3.2,-1.44 l -2,4.44 -4.44,-2 a 1.7524911,1.7524911 0 0 0 -1.43,3.2 l 4.43,2 -2,4.43 a 1.76,1.76 0 0 0 3.21,1.44 l 2,-4.44 4.44,2 a 1.7524911,1.7524911 0 1 0 1.43,-3.2 z m 44.94,33 -8.87,-23.29 4.36,-9.72 a 8.87,8.87 0 0 0 0.72,-4.63 l -2.78,-24.12 a 5.38,5.38 0 0 1 0.43,-2.8 l 2.33,-5.2 a 6.28,6.28 0 0 0 6.66,-3.62 l 3.29,-7.32 a 6.3,6.3 0 0 0 -3.17,-8.32 L 1232.43,7.28 a 6.3,6.3 0 0 0 -8.32,3.17 l -3.28,7.32 a 6.28,6.28 0 0 0 1.72,7.38 l -2.33,5.2 a 5.27,5.27 0 0 1 -0.48,0.83 v 0.07 a 5.32,5.32 0 0 1 -1.27,1.28 l -19.87,14 a 8.8,8.8 0 0 0 -3,3.61 l -18.15,40.36 a 6.63,6.63 0 0 0 3.34,8.76 l 46.9,21 a 6.63,6.63 0 0 0 6.62,-0.69 13.36,13.36 0 0 0 24.77,-10 z M 1224,19.2 l 3.28,-7.31 a 2.79,2.79 0 0 1 3.68,-1.4 l 29.62,13.28 a 2.78,2.78 0 0 1 1.4,3.68 l -3.28,7.32 a 2.79,2.79 0 0 1 -3.68,1.4 L 1225.4,22.88 A 2.78,2.78 0 0 1 1224,19.2 Z m -3.59,16.2 a 8.23,8.23 0 0 0 1.18,-1 l 16.41,7.31 a 1.755,1.755 0 0 0 1.44,-3.2 l -15.82,-7.1 2.06,-4.58 26.32,11.8 -2.22,5 a 8.87,8.87 0 0 0 -0.72,4.63 l 2.78,24.12 a 4.79,4.79 0 0 1 0,1.07 l -52,-23.34 a 4.9,4.9 0 0 1 0.8,-0.71 z m 8.69,81.7 -46.91,-21 a 3.12,3.12 0 0 1 -1.57,-4.12 l 2.19,-4.89 31,13.89 a 1.76,1.76 0 0 0 1.44,-3.21 l -31,-13.88 13.77,-30.7 52.6,23.6 -2.32,5.21 a 13.37,13.37 0 0 0 -23.83,11.85 l 8.46,22.25 a 3.11,3.11 0 0 1 -3.8,1 z m 21,6.47 a 9.89,9.89 0 0 1 -12.73,-5.71 l -4.18,-11 11.27,-4.29 a 1.76,1.76 0 1 0 -1.25,-3.28 l -11.27,4.29 -4.19,-11 a 9.87,9.87 0 0 1 18.44,-7 l 9.62,25.27 a 9.87,9.87 0 0 1 -5.71,12.73 z M 1092.81,106.18 A 20,20 0 0 1 1077,82.68 l 0.65,-3.31 a 1.6,1.6 0 0 1 3.14,0.61 l -0.65,3.32 a 16.82,16.82 0 1 0 33,6.48 l 4.14,-21.1 a 12.87505,12.87505 0 0 1 25.26,5 l -1.09,5.51 a 1.5944435,1.5944435 0 0 1 -3.13,-0.61 l 1.08,-5.52 a 9.6813338,9.6813338 0 0 0 -19,-3.73 l -4.1,21.07 a 20,20 0 0 1 -23.49,15.78 z m 12.8,-49.66 v 0 a 1.6,1.6 0 0 1 -1.26,-1.88 l 6.27,-31.37 a 6.06,6.06 0 0 0 -4.78,-7.11 1.6003125,1.6003125 0 1 1 0.62,-3.14 9.27,9.27 0 0 1 7.3,10.87 l -6.27,31.38 a 1.6,1.6 0 0 1 -1.88,1.25 z m -41.99,-8.25 a 1.61,1.61 0 0 1 -1.27,-1.87 l 6.07,-31.4 a 9.28,9.28 0 0 1 10.87,-7.31 1.6,1.6 0 0 1 -0.61,3.14 6.08,6.08 0 0 0 -7.12,4.78 L 1065.49,47 a 1.59,1.59 0 0 1 -1.87,1.27 z"
       id="path16" />
    <path
       d="m 1083.78,82.19 -9.67,-1.9 a 1.59,1.59 0 0 1 -1.26,-1.87 l 0.77,-3.92 a 26.31,26.31 0 0 1 -14.43,-28.73 1.6,1.6 0 0 1 1.88,-1.26 l 6.82,1.34 a 1.6,1.6 0 0 1 1.26,1.88 16.072,16.072 0 0 0 31.54,6.2 1.6,1.6 0 0 1 1.88,-1.26 l 6.82,1.34 a 1.59,1.59 0 0 1 1.26,1.87 26.29,26.29 0 0 1 -24.22,21.12 l -0.77,3.92 a 1.6,1.6 0 0 1 -1.88,1.27 z m -7.48,-4.73 6.53,1.29 0.71,-3.6 a 1.58,1.58 0 0 1 1.55,-1.29 23.12,23.12 0 0 0 22.07,-17 l -3.7,-0.73 a 19.27,19.27 0 0 1 -37.69,-7.41 l -3.7,-0.72 a 23.09,23.09 0 0 0 14,24.11 1.59,1.59 0 0 1 1,1.78 z m 59.95,20.04 a 10.3,10.3 0 1 1 12.1,-8.12 10.32,10.32 0 0 1 -12.1,8.12 z m 3.36,-17.09 a 7.11,7.11 0 1 0 5.6,8.35 7.13,7.13 0 0 0 -5.6,-8.35 z"
       id="path18" />
    <circle
       cx="1138.23"
       cy="87.389999"
       r="3.53"
       id="circle20" />
    <path
       d="m 1191.92,208.9 a 12.8,12.8 0 0 1 -12.79,-21.13 l -14.45,-50.36 a 6.48,6.48 0 0 1 12.45,-3.57 l 14.44,50.36 a 12.8,12.8 0 0 1 0.35,24.7 z m -22.29,-77.73 a 4.64,4.64 0 0 0 -3.18,5.73 l 14.75,51.41 -0.4,0.38 a 11,11 0 1 0 9.85,-2.82 l -0.54,-0.12 -14.75,-51.4 a 4.64,4.64 0 0 0 -5.73,-3.18 z m 17.62,58.12 -6.46,-22.53 a 0.92,0.92 0 0 0 -1.77,0.5 l 6.47,22.53 a 7.42,7.42 0 1 0 1.76,-0.5 z"
       id="path22" />
    <path
       d="m 1177.4,158.29 -5.33,1.53 a 0.92100489,0.92100489 0 0 1 -0.51,-1.77 l 5.34,-1.53 a 0.91,0.91 0 0 1 1.13,0.63 0.92,0.92 0 0 1 -0.63,1.14 z m -5.05,-7.55 -2.67,0.77 a 0.92,0.92 0 0 1 -0.5,-1.77 l 2.67,-0.76 a 0.915,0.915 0 0 1 0.5,1.76 z m 0.29,-9.07 -5.34,1.53 a 0.92100489,0.92100489 0 0 1 -0.51,-1.77 l 5.34,-1.53 a 0.92100489,0.92100489 0 1 1 0.51,1.77 z m -158.3,-91.4 h -7.93 a 1.46,1.46 0 0 0 -1.46,1.46 v 4.51 h -5 a 28,28 0 0 0 -4.38,-10.57 l 3.5,-3.5 3.19,3.19 a 1.47,1.47 0 0 0 2.07,0 l 5.61,-5.61 a 1.47,1.47 0 0 0 0,-2.06 l -14,-14 a 1.47,1.47 0 0 0 -2.06,0 l -5.61,5.62 a 1.46,1.46 0 0 0 -0.43,1 1.5,1.5 0 0 0 0.43,1 l 3.19,3.19 -3.5,3.5 A 28.21,28.21 0 0 0 977.39,33.62 V 28.74 H 982 a 1.46,1.46 0 0 0 1.46,-1.46 V 19.35 A 1.46,1.46 0 0 0 982,17.89 h -19.81 a 1.46,1.46 0 0 0 -1.46,1.46 v 7.93 a 1.46,1.46 0 0 0 1.46,1.46 h 4.51 v 4.95 a 28.21,28.21 0 0 0 -10.57,4.38 l -3.5,-3.5 3.19,-3.19 a 1.45,1.45 0 0 0 0,-2.06 l -5.61,-5.61 a 1.45,1.45 0 0 0 -2.06,0 l -14,14 a 1.47,1.47 0 0 0 0,2.06 l 5.62,5.61 a 1.45,1.45 0 0 0 2.06,0 l 3.17,-3.21 3.5,3.5 a 28.11,28.11 0 0 0 -4.38,10.57 h -4.92 v -4.51 a 1.46,1.46 0 0 0 -1.46,-1.46 h -7.93 a 1.46,1.46 0 0 0 -1.46,1.46 V 71.5 a 1.46,1.46 0 0 0 1.46,1.5 h 7.93 a 1.46,1.46 0 0 0 1.46,-1.46 V 67 h 4.95 a 28.21,28.21 0 0 0 4.38,10.57 l -3.5,3.5 -3.19,-3.19 a 1.49,1.49 0 0 0 -2.06,0 l -5.61,5.61 a 1.45,1.45 0 0 0 0,2.06 l 14,14 a 1.47,1.47 0 0 0 2.06,0 l 5.61,-5.61 a 1.45,1.45 0 0 0 0,-2.06 l -3.19,-3.2 3.5,-3.5 a 28,28 0 0 0 10.57,4.38 v 4.95 h -4.51 A 1.46,1.46 0 0 0 960.73,96 v 7.93 a 1.46,1.46 0 0 0 1.46,1.46 H 982 a 1.46,1.46 0 0 0 1.46,-1.46 V 96 A 1.46,1.46 0 0 0 982,94.49 h -4.51 V 89.54 A 28,28 0 0 0 988,85.16 l 3.5,3.5 -3.19,3.19 a 1.47,1.47 0 0 0 0,2.07 l 5.61,5.61 a 1.48,1.48 0 0 0 1,0.42 1.46,1.46 0 0 0 1,-0.42 l 14,-14 a 1.45,1.45 0 0 0 0,-2.06 l -5.61,-5.61 a 1.45,1.45 0 0 0 -2.06,0 l -3.2,3.19 -3.5,-3.5 A 27.89,27.89 0 0 0 1000,67 h 5 v 4.5 a 1.46,1.46 0 0 0 1.46,1.46 h 7.93 a 1.46,1.46 0 0 0 1.46,-1.46 V 51.73 a 1.46,1.46 0 0 0 -1.51,-1.46 z M 968.16,25.82 h -4.51 v -5 h 16.86 v 5 H 976 a 1.46,1.46 0 0 0 -1.45,1.46 v 6 l -2.46,-0.11 -2.46,0.11 v -6 a 1.47,1.47 0 0 0 -1.47,-1.46 z m -30.42,38.26 a 1.45,1.45 0 0 0 -1.45,1.45 v 4.52 h -5 V 53.19 h 5 v 4.51 a 1.46,1.46 0 0 0 1.45,1.46 h 6 l -0.11,2.46 0.11,2.46 z M 976,97.41 h 4.52 v 5 h -16.87 v -5 h 4.51 A 1.47,1.47 0 0 0 969.62,96 v -6 l 2.46,0.11 2.46,-0.11 v 6 a 1.46,1.46 0 0 0 1.46,1.41 z m 24.16,-13.26 3.19,-3.19 3.55,3.55 -11.9,11.92 -3.55,-3.54 3.19,-3.2 a 1.45,1.45 0 0 0 0,-2.06 l -5.39,-5.39 v 0 a 1.55,1.55 0 0 0 -0.43,-0.29 v 0 a 1.64,1.64 0 0 0 -0.49,-0.1 h -0.06 a 1.63,1.63 0 0 0 -0.48,0.09 h -0.07 a 1.52,1.52 0 0 0 -0.3,0.17 25.58,25.58 0 0 1 -30.49,0 1,1 0 0 0 -0.3,-0.17 h -0.06 a 1.23,1.23 0 0 0 -0.49,-0.1 h -0.05 a 1.71,1.71 0 0 0 -0.5,0.1 v 0 a 1.4,1.4 0 0 0 -0.44,0.29 v 0 l -5.39,5.39 a 1.45,1.45 0 0 0 0,2.06 l 3.19,3.19 -3.55,3.55 -12.08,-11.91 3.55,-3.51 3.19,3.15 a 1.45,1.45 0 0 0 2.06,0 l 5.39,-5.39 a 1.36,1.36 0 0 0 0.29,-0.43 v 0 a 2,2 0 0 0 0.09,-0.49 v -0.06 a 1.32,1.32 0 0 0 -0.09,-0.48 0.19,0.19 0 0 1 0,-0.07 2.28,2.28 0 0 0 -0.17,-0.3 25.54,25.54 0 0 1 0,-30.49 1.87,1.87 0 0 0 0.17,-0.31 v -0.05 a 1.41,1.41 0 0 0 0.09,-0.49 v -0.06 a 1.23,1.23 0 0 0 -0.1,-0.49 1.36,1.36 0 0 0 -0.29,-0.43 l -5.39,-5.39 a 1.45,1.45 0 0 0 -2.06,0 l -3.19,3.19 -3.55,-3.55 11.93,-12.06 3.55,3.55 -3.19,3.19 a 1.45,1.45 0 0 0 0,2.06 l 5.39,5.4 v 0 a 1.36,1.36 0 0 0 0.43,0.29 h 0.06 a 1.58,1.58 0 0 0 0.48,0.1 h 0.1 a 1.37,1.37 0 0 0 0.49,-0.09 h 0.06 a 1.24,1.24 0 0 0 0.3,-0.16 25.54,25.54 0 0 1 30.49,0 2.26,2.26 0 0 0 0.22,0.11 l 0.15,0.08 a 1.44,1.44 0 0 0 0.5,0.1 v 0 a 1.43,1.43 0 0 0 0.49,-0.1 h 0.08 a 1.62,1.62 0 0 0 0.42,-0.28 v 0 l 5.39,-5.39 a 1.45,1.45 0 0 0 0.43,-1 1.42,1.42 0 0 0 -0.43,-1 l -3.19,-3.19 3.6,-3.67 11.93,11.92 -3.55,3.55 -3.19,-3.19 a 1.47,1.47 0 0 0 -2.07,0 l -5.39,5.39 v 0 a 1.55,1.55 0 0 0 -0.29,0.43 1.64,1.64 0 0 0 -0.1,0.49 v 0.06 a 1.43,1.43 0 0 0 0.1,0.49 0.14,0.14 0 0 0 0,0.06 1.52,1.52 0 0 0 0.17,0.3 25.58,25.58 0 0 1 0,30.49 1.28,1.28 0 0 0 -0.17,0.3 0.14,0.14 0 0 0 0,0.06 1.38,1.38 0 0 0 -0.1,0.49 v 0.06 a 1.71,1.71 0 0 0 0.1,0.49 1.55,1.55 0 0 0 0.29,0.43 l 5.39,5.39 a 1.45,1.45 0 0 0 2.03,0.14 z m 12.74,-14.1 h -5 v -4.52 a 1.46,1.46 0 0 0 -1.46,-1.45 h -6 l 0.11,-2.46 -0.11,-2.46 h 6 a 1.47,1.47 0 0 0 1.46,-1.46 v -4.51 h 5 z m -48.78,-8.22 a 8.11,8.11 0 1 1 8.11,-8.11 8.12,8.12 0 0 1 -8.11,8.11 z m 0,-13.3 a 5.2,5.2 0 1 0 5.2,5.19 5.21,5.21 0 0 0 -5.2,-5.19 z M 980,77.38 a 6.85,6.85 0 1 1 6.84,-6.85 6.85,6.85 0 0 1 -6.84,6.85 z m 0,-10.78 a 3.94,3.94 0 1 0 3.93,3.93 A 3.94,3.94 0 0 0 980,66.6 Z m 138.38,225.82 a 13.19,13.19 0 0 1 -2.87,-0.87 l -10.13,-4.34 a 16.1,16.1 0 0 0 -3.4,-1 l -13.47,-2.52 a 1,1 0 0 1 -0.77,-1.14 l 2.42,-12.93 a 1,1 0 0 1 1.14,-0.78 v 0 l 10.86,2.12 a 1.88,1.88 0 0 0 1.23,-0.22 c 4.63,-2.73 8.77,-4.48 15.09,-4.77 4.3,-0.15 9,-1.68 14.34,-4.69 a 3.83,3.83 0 0 1 4.77,0.85 3.82,3.82 0 0 1 -0.48,5.41 c -4.7,3.88 -8.88,6.45 -12.71,7.83 5.11,4.74 17.6,4.86 26.88,4.95 a 4.15,4.15 0 0 1 0.86,8.2 l -22.37,4.86 a 13.67,13.67 0 0 1 -5.33,0.13 l -5.87,-1 z m -28.55,-10.51 12.51,2.35 a 17.47,17.47 0 0 1 3.81,1.16 l 10.13,4.34 a 12.05,12.05 0 0 0 2.63,0.78 l 5.87,1 v 0 a 11.53,11.53 0 0 0 4.57,-0.11 l 22.38,-4.86 a 2.21,2.21 0 0 0 -0.46,-4.36 c -10.32,-0.09 -24.47,-0.23 -29.37,-6.77 a 1,1 0 0 1 0.51,-1.52 c 4,-1.14 8.37,-3.73 13.47,-7.93 a 1.86,1.86 0 0 0 0.67,-1.27 1.88,1.88 0 0 0 -0.44,-1.38 1.86,1.86 0 0 0 -2.33,-0.41 c -5.63,3.16 -10.6,4.77 -15.21,4.93 -5.93,0.28 -9.69,1.86 -14.18,4.51 a 3.68,3.68 0 0 1 -2.57,0.45 v 0 l -9.9,-1.93 z m 56.33,-17.09 a 1,1 0 0 1 -0.78,-1.14 l 3.17,-16.87 a 1,1 0 1 1 1.91,0.36 l -3.17,16.83 a 1,1 0 0 1 -1.13,0.82 z"
       id="path24" />
    <path
       d="m 1172.21,302.41 -26,-4.89 a 1,1 0 0 1 -0.76,-1.23 l 2.45,-8.36 a 1,1 0 0 1 1.87,0.55 l -2.14,7.33 23.89,4.48 3.17,-36.45 a 4.65,4.65 0 0 0 -3.77,-5 l -7.71,-1.44 a 4.61,4.61 0 0 0 -5.31,3.25 l -6.09,20.84 a 1,1 0 0 1 -1.21,0.66 1,1 0 0 1 -0.66,-1.21 l 6.09,-20.83 a 6.57,6.57 0 0 1 7.54,-4.63 l 7.71,1.45 a 6.57,6.57 0 0 1 5.35,7 l -3.26,37.53 a 1,1 0 0 1 -0.39,0.69 0.94,0.94 0 0 1 -0.77,0.26 z"
       id="path26" />
    <path
       d="m 1170.61,258.82 -7.11,-1.34 a 1,1 0 0 1 -0.78,-1.14 l 2.06,-11 a 1,1 0 0 1 1.14,-0.78 l 7.12,1.34 a 1,1 0 0 1 0.77,1.14 l -2.06,11 a 1,1 0 0 1 -1.14,0.78 z m -5.8,-3.08 5.2,1 1.71,-9.09 -5.2,-1 z"
       id="path28" />
    <path
       d="m 1179.1,249 -29.63,-5.56 a 1,1 0 0 1 -0.78,-0.78 1,1 0 0 1 0.44,-1 l 6.63,-4.14 a 1,1 0 0 1 0.69,-0.13 l 24,4.5 a 1,1 0 0 1 0.78,1.14 l -1,5.2 a 1,1 0 0 1 -1.13,0.77 z m -26.82,-7 26.22,4.92 0.62,-3.28 -22.65,-4.25 z m -8.11,33.38 a 1,1 0 0 1 -0.77,-1.13 l 1.1,-5.89 a 1,1 0 1 1 1.92,0.36 l -1.11,5.89 a 1,1 0 0 1 -1.14,0.77 z m -6.09,-28.81 a 3.89,3.89 0 0 1 -2.25,-1.33 c -3.89,-4.74 -7.7,-7.87 -11.65,-9.56 a 30,30 0 0 1 -12.34,-9.93 1.77,1.77 0 0 0 -1.06,-0.65 v 0 l -10.89,-2 v 0 a 1,1 0 0 1 -0.78,-1.13 l 2.43,-12.94 a 1,1 0 0 1 1.13,-0.77 l 13.47,2.53 a 16.89,16.89 0 0 0 3.55,0.27 l 11,-0.38 a 14.18,14.18 0 0 1 3.19,0.27 l 5.83,1.18 a 13.65,13.65 0 0 1 4.93,2.06 l 19.08,12.64 a 4.16,4.16 0 0 1 -3.78,7.34 c -8.68,-3.29 -20.36,-7.71 -26.84,-5.14 3.07,2.67 6,6.59 9,11.9 a 3.81,3.81 0 0 1 -4,5.61 z m -26.94,-23.38 a 3.68,3.68 0 0 1 2.23,1.35 c 3.22,4.1 6.15,6.94 11.59,9.35 4.23,1.82 8.28,5.13 12.38,10.11 a 1.86,1.86 0 0 0 2.32,0.46 1.91,1.91 0 0 0 0.91,-1.12 1.81,1.81 0 0 0 -0.17,-1.42 c -3.22,-5.77 -6.39,-9.78 -9.67,-12.28 a 1,1 0 0 1 0.07,-1.6 c 7,-4.32 20.17,0.68 29.83,4.34 a 2.21,2.21 0 0 0 2,-3.9 l -19.08,-12.64 a 11.72,11.72 0 0 0 -4.22,-1.77 l -5.84,-1.18 a 11.45,11.45 0 0 0 -2.74,-0.23 l -11,0.37 a 18.23,18.23 0 0 1 -4,-0.3 l -12.51,-2.35 -2.07,11 9.93,1.79 z m 422.03,234.68 -6.64,1.54 -1.55,-6.63 -3.84,0.89 1.54,6.64 -6.64,1.54 0.89,3.84 6.65,-1.54 1.54,6.64 3.84,-0.89 -1.54,-6.65 6.64,-1.54 z m 62.88,82.37 -19.85,-85.45 -32.1,7.45 -4.94,-21.24 -36,8.35 4.94,21.28 -32.1,7.45 19.84,85.45 -7.53,1.75 0.89,3.84 49,-11.39 17.12,-4 49,-11.39 -0.89,-3.84 -7.53,1.75 z m -22.8,-80.72 19,81.61 -28.27,6.56 -19,-81.61 z m -92.47,21.48 28.27,-6.56 18.95,81.56 -28.27,6.56 z m 60.47,72 -5.73,-24.67 a 4.85,4.85 0 1 1 9.44,-2.19 l 5.73,24.67 z m -3,-34.33 a 8.8,8.8 0 0 0 -6.57,10.55 l 5.73,24.67 -5.57,1.3 -19.84,-85.49 -4,-17.45 28.27,-6.56 4,17.44 19.84,85.45 -5.57,1.3 -5.73,-24.68 a 8.81,8.81 0 0 0 -10.56,-6.57 z m -1.58,-45.67 -17.12,4 4,17.12 17.12,-4 z m -0.75,14.17 -9.44,2.19 -2.19,-9.44 9.43,-2.19 z m 5.82,7.64 -17.12,4 4,17.12 17.12,-4 z M 1541,509 l -9.44,2.2 -2.19,-9.44 9.43,-2.19 z m 27.78,-43.47 -17.12,4 4,17.12 17.12,-4 z m -0.78,14.17 -9.44,2.19 -2.19,-9.44 9.44,-2.19 z m 5.85,7.66 -17.12,4 4,17.12 17.12,-4 z m -0.76,14.17 -9.44,2.19 -2.19,-9.44 9.44,-2.19 z m 5.83,7.66 -17.12,4 4,17.12 17.12,-4 z m -0.76,14.17 -9.44,2.19 -2.19,-9.44 9.44,-2.19 z m -90.71,-38.95 4,17.12 17.11,-4 -4,-17.12 z m 16.36,10.2 -9.44,2.19 -2.19,-9.44 9.44,-2.19 z m -7.32,28.75 17.12,-4 -4,-17.12 -17.12,4 z m 0.76,-14.17 9.44,-2.19 2.19,9.44 -9.44,2.19 z m 4.31,36.01 17.12,-4 -4,-17.12 -17.12,4 z m 0.76,-14.17 9.44,-2.2 2.19,9.44 -9.44,2.19 z m 208.31,-86.51 c -3,-4.09 -9.48,-5.9 -17.9,-5 l -25.56,-11 a 30.57,30.57 0 0 0 -9.92,-2.42 l -27.72,-2 c -7.09,-4.64 -13.7,-6 -18.22,-3.75 a 8.08,8.08 0 0 0 -4.5,7.06 c -0.25,5.53 4,11.62 11.38,16.41 7.25,14.42 15.1,23.65 33.18,28.05 18.08,4.4 29.29,-0.19 42.34,-9.67 8.78,-0.86 15.36,-4.32 17.67,-9.34 a 8.09,8.09 0 0 0 -0.75,-8.34 z m -99,-16.88 a 3.27,3.27 0 0 1 1.87,-3 c 2,-1 5.81,-0.84 11.09,2.06 l -6.17,11.38 c -5.14,-3.98 -6.93,-7.98 -6.82,-10.44 z m 40.9,39.58 c -16.46,-4 -23.34,-12.16 -30.14,-25.79 a 2.52,2.52 0 0 0 -0.14,-0.33 l 6.62,-12.23 28.07,2 a 25.79,25.79 0 0 1 8.37,2 l 25.82,11.13 0.27,13.92 a 2.11,2.11 0 0 0 -0.23,0.19 c -12.32,9.02 -22.17,13.12 -38.67,9.11 z M 1707,450.86 c -1,2.24 -4.47,5 -10.85,6.16 l -0.25,-12.94 c 6,-0.16 9.52,1.48 10.82,3.26 a 3.3,3.3 0 0 1 0.28,3.52 z m -53.2,11 c -11,-2.68 -16.32,-6.25 -21.71,-11.51 a 2.401,2.401 0 0 1 3.35,-3.44 c 4.91,4.79 9.48,7.85 19.5,10.29 10.02,2.44 15.48,1.82 22,-0.18 a 2.4,2.4 0 1 1 1.4,4.59 c -7.16,2.2 -13.5,2.94 -24.54,0.25 z m 2.2,-9.17 c -8.54,-2.08 -12.77,-4.28 -17.2,-7.39 a 2.4,2.4 0 1 1 2.76,-3.92 c 4.05,2.84 7.73,4.74 15.57,6.65 7.84,1.91 12,1.91 16.88,1.24 a 2.4020876,2.4020876 0 0 1 0.65,4.76 c -5.32,0.72 -10.09,0.74 -18.66,-1.34 z m 14.91,-8.04 a 2.68,2.68 0 0 1 -0.57,-0.22 54.19,54.19 0 0 0 -23.21,-5.65 2.4004218,2.4004218 0 1 1 -0.09,-4.8 59.2,59.2 0 0 1 25.58,6.22 2.4,2.4 0 0 1 -1.71,4.45 z m -56.47,-105.56 -4.43,-2 2,-4.43 a 1.76,1.76 0 0 0 -3.21,-1.44 l -2,4.44 -4.43,-2 a 1.755,1.755 0 1 0 -1.44,3.2 l 4.44,2 -2,4.43 a 1.755,1.755 0 0 0 3.2,1.44 l 2,-4.44 4.44,2 a 1.7524911,1.7524911 0 0 0 1.43,-3.2 z m 44.94,33 -8.87,-23.29 4.36,-9.72 a 8.76,8.76 0 0 0 0.71,-4.63 l -2.78,-24.12 a 5.3,5.3 0 0 1 0.44,-2.8 l 2.33,-5.2 a 6.29,6.29 0 0 0 6.66,-3.62 l 3.28,-7.32 a 6.31,6.31 0 0 0 -3.16,-8.32 l -29.62,-13.28 a 6.3,6.3 0 0 0 -8.32,3.16 l -3.29,7.32 a 6.29,6.29 0 0 0 1.73,7.38 l -2.34,5.2 a 4.81,4.81 0 0 1 -0.47,0.83 v 0.07 a 5.6,5.6 0 0 1 -1.28,1.29 l -19.86,14 a 8.9,8.9 0 0 0 -3,3.61 L 1577.75,353 a 6.64,6.64 0 0 0 3.33,8.77 l 46.91,21 a 6.64,6.64 0 0 0 6.61,-0.7 13.37,13.37 0 0 0 24.78,-10 z m -35.05,-90.39 3.28,-7.31 a 2.79,2.79 0 0 1 3.68,-1.4 l 29.62,13.28 a 2.8,2.8 0 0 1 1.4,3.69 l -3.28,7.31 a 2.79,2.79 0 0 1 -3.68,1.4 l -29.62,-13.29 a 2.78,2.78 0 0 1 -1.4,-3.68 z m -3.6,16.21 a 9.77,9.77 0 0 0 1.19,-1 l 16.35,7.33 a 1.7524911,1.7524911 0 1 0 1.43,-3.2 l -15.81,-7.1 2,-4.58 26.32,11.8 -2.22,5 a 8.77,8.77 0 0 0 -0.72,4.63 l 2.78,24.12 a 5.46,5.46 0 0 1 0,1.07 l -52,-23.34 a 5,5 0 0 1 0.8,-0.71 z m 8.69,81.7 -46.9,-21 a 3.13,3.13 0 0 1 -1.57,-4.13 l 2.19,-4.89 30.95,13.89 a 1.755,1.755 0 0 0 1.44,-3.2 l -31,-13.89 13.77,-30.7 52.6,23.6 -2.35,5.24 a 13.42,13.42 0 0 0 -16.1,-5.41 13.39,13.39 0 0 0 -7.74,17.26 l 8.47,22.25 a 3.14,3.14 0 0 1 -3.76,0.98 z m 21,6.46 a 9.88,9.88 0 0 1 -12.73,-5.71 l -4.19,-11 11.28,-4.29 a 1.76,1.76 0 0 0 -1.25,-3.28 l -11.27,4.3 -4.19,-11 a 9.87,9.87 0 0 1 18.44,-7 l 9.62,25.27 a 9.87,9.87 0 0 1 -5.71,12.73 z m -149.73,28.79 a 20,20 0 0 1 -15.78,-23.49 l 0.65,-3.31 a 1.6,1.6 0 0 1 3.14,0.61 l -0.65,3.32 a 16.8151,16.8151 0 1 0 33,6.48 l 4.15,-21.1 a 12.870145,12.870145 0 1 1 25.25,5 l -1.08,5.51 a 1.6003125,1.6003125 0 1 1 -3.14,-0.62 l 1.09,-5.51 a 9.6813338,9.6813338 0 0 0 -19,-3.73 l -4.15,21.11 a 20,20 0 0 1 -23.48,15.73 z m 12.8,-49.65 v 0 a 1.6,1.6 0 0 1 -1.25,-1.88 L 1518.5,332 a 6.07,6.07 0 0 0 -4.78,-7.11 1.6,1.6 0 0 1 0.61,-3.14 9.27,9.27 0 0 1 7.3,10.87 l -6.27,31.38 a 1.59,1.59 0 0 1 -1.87,1.21 z m -42,-8.21 a 1.6,1.6 0 0 1 -1.26,-1.87 l 6.07,-31.41 a 9.27,9.27 0 0 1 10.87,-7.31 1.6003125,1.6003125 0 1 1 -0.62,3.14 6.06,6.06 0 0 0 -7.11,4.78 l -6.07,31.4 a 1.6,1.6 0 0 1 -1.87,1.27 z"
       id="path30" />
    <path
       d="M 1491.66,390.88 1482,389 a 1.59,1.59 0 0 1 -1.26,-1.87 l 0.77,-3.93 a 26.3,26.3 0 0 1 -14.43,-28.72 1.59,1.59 0 0 1 1.87,-1.26 l 6.83,1.34 a 1.6,1.6 0 0 1 1.26,1.88 16.072,16.072 0 1 0 31.54,6.2 1.59,1.59 0 0 1 1.88,-1.26 l 6.82,1.34 a 1.6,1.6 0 0 1 1.26,1.87 26.3,26.3 0 0 1 -24.23,21.13 l -0.77,3.92 a 1.59,1.59 0 0 1 -1.88,1.24 z m -7.49,-4.73 6.53,1.29 0.71,-3.6 a 1.59,1.59 0 0 1 1.56,-1.29 23.09,23.09 0 0 0 22.06,-17 l -3.69,-0.72 a 19.27,19.27 0 0 1 -37.69,-7.41 l -3.7,-0.73 a 23.1,23.1 0 0 0 14,24.12 1.59,1.59 0 0 1 1,1.78 z m 59.95,20.04 a 10.31,10.31 0 1 1 12.1,-8.13 10.32,10.32 0 0 1 -12.1,8.13 z m 3.36,-17.09 a 7.11,7.11 0 1 0 5.61,8.35 7.12,7.12 0 0 0 -5.61,-8.35 z"
       id="path32" />
    <circle
       cx="1546.11"
       cy="396.07999"
       r="3.53"
       id="circle34" />
    <path
       d="m 1429.19,407.31 a 12.8,12.8 0 0 1 -12.8,-21.14 L 1402,335.81 a 6.47,6.47 0 1 1 12.44,-3.56 l 14.44,50.35 a 12.8,12.8 0 0 1 0.36,24.71 z m -22.3,-77.73 a 4.64,4.64 0 0 0 -3.18,5.73 l 14.75,51.4 -0.4,0.39 a 11,11 0 1 0 9.85,-2.83 l -0.54,-0.11 -14.75,-51.41 a 4.63,4.63 0 0 0 -5.73,-3.17 z m 17.63,58.11 -6.47,-22.53 a 0.91,0.91 0 0 0 -1.13,-0.63 0.92,0.92 0 0 0 -0.63,1.14 l 6.46,22.53 a 7.39,7.39 0 1 0 1.77,-0.51 z"
       id="path36" />
    <path
       d="m 1414.67,356.69 -5.34,1.53 a 0.915,0.915 0 1 1 -0.5,-1.76 l 5.33,-1.54 a 0.92100489,0.92100489 0 1 1 0.51,1.77 z m -5.05,-7.54 -2.67,0.76 a 0.92,0.92 0 0 1 -1.14,-0.63 0.91,0.91 0 0 1 0.63,-1.13 l 2.67,-0.77 a 0.92100489,0.92100489 0 1 1 0.51,1.77 z m 0.28,-9.08 -5.34,1.53 a 0.915,0.915 0 0 1 -0.5,-1.76 l 5.33,-1.53 a 0.92,0.92 0 1 1 0.51,1.76 z M 1354.83,328 h -7.94 a 1.47,1.47 0 0 0 -1.46,1.46 V 334 h -4.94 a 28,28 0 0 0 -4.39,-10.56 l 3.51,-3.51 3.19,3.19 a 1.45,1.45 0 0 0 2.06,0 l 5.61,-5.61 a 1.45,1.45 0 0 0 0.42,-1 1.49,1.49 0 0 0 -0.42,-1 l -14,-14 a 1.45,1.45 0 0 0 -2.06,0 l -5.61,5.61 a 1.47,1.47 0 0 0 0,2.06 l 3.19,3.19 -3.5,3.5 a 28.21,28.21 0 0 0 -10.57,-4.38 v -5 h 4.52 a 1.45,1.45 0 0 0 1.45,-1.45 v -7.94 a 1.45,1.45 0 0 0 -1.45,-1.46 h -19.78 a 1.46,1.46 0 0 0 -1.46,1.46 v 7.9 a 1.45,1.45 0 0 0 1.46,1.45 h 4.51 v 5 a 28.16,28.16 0 0 0 -10.56,4.38 l -3.51,-3.5 3.19,-3.19 a 1.45,1.45 0 0 0 0,-2.06 l -5.61,-5.61 a 1.45,1.45 0 0 0 -2.06,0 l -14,14 a 1.44,1.44 0 0 0 -0.43,1 1.42,1.42 0 0 0 0.43,1 l 5.61,5.61 a 1.45,1.45 0 0 0 2.06,0 l 3.19,-3.19 3.5,3.51 a 28.23,28.23 0 0 0 -4.38,10.56 h -5 v -4.51 a 1.46,1.46 0 0 0 -1.46,-1.46 h -7.93 a 1.46,1.46 0 0 0 -1.46,1.46 v 19.78 a 1.45,1.45 0 0 0 1.46,1.45 h 7.93 a 1.45,1.45 0 0 0 1.46,-1.45 v -4.52 h 5 a 28.21,28.21 0 0 0 4.38,10.57 l -3.5,3.5 -3.19,-3.19 a 1.51,1.51 0 0 0 -2.06,0 l -5.61,5.61 a 1.45,1.45 0 0 0 0,2.06 l 14,14 a 1.48,1.48 0 0 0 1,0.43 1.46,1.46 0 0 0 1,-0.43 l 5.61,-5.61 a 1.45,1.45 0 0 0 0,-2.06 l -3.19,-3.19 3.51,-3.51 a 28,28 0 0 0 10.56,4.39 v 5 h -4.51 a 1.45,1.45 0 0 0 -1.46,1.45 v 7.94 a 1.45,1.45 0 0 0 1.46,1.45 h 19.78 a 1.45,1.45 0 0 0 1.45,-1.45 v -7.94 a 1.46,1.46 0 0 0 -1.45,-1.46 h -4.52 v -4.94 a 28.07,28.07 0 0 0 10.57,-4.39 l 3.5,3.51 -3.19,3.19 a 1.45,1.45 0 0 0 0,2.06 l 5.61,5.61 a 1.49,1.49 0 0 0 1,0.43 1.45,1.45 0 0 0 1,-0.43 l 14,-14 a 1.45,1.45 0 0 0 0,-2.06 l -5.61,-5.61 a 1.45,1.45 0 0 0 -2.06,0 l -3.19,3.19 -3.51,-3.5 a 28.07,28.07 0 0 0 4.39,-10.57 h 4.94 v 4.52 a 1.46,1.46 0 0 0 1.46,1.45 h 7.94 a 1.45,1.45 0 0 0 1.45,-1.45 v -19.83 a 1.46,1.46 0 0 0 -1.33,-1.45 z m -46.19,-24.44 h -4.51 v -5 H 1321 v 5 h -4.51 A 1.46,1.46 0 0 0 1315,305 v 6 l -2.46,-0.11 -2.46,0.11 v -6 a 1.46,1.46 0 0 0 -1.44,-1.45 z m -30.42,38.25 a 1.45,1.45 0 0 0 -1.45,1.46 v 4.51 h -5 v -16.87 h 5 v 4.51 a 1.45,1.45 0 0 0 1.45,1.46 h 6 l -0.1,2.46 0.1,2.46 z m 38.26,33.33 h 4.52 v 5 h -16.86 v -5 h 4.51 a 1.46,1.46 0 0 0 1.46,-1.46 v -6 l 2.46,0.11 2.46,-0.11 v 6 a 1.46,1.46 0 0 0 1.45,1.45 z m 24.16,-13.25 3.19,-3.2 3.55,3.55 -11.93,11.93 -3.55,-3.55 3.2,-3.19 a 1.47,1.47 0 0 0 0,-2.06 l -5.4,-5.39 a 1.42,1.42 0 0 0 -0.43,-0.29 v 0 a 1.37,1.37 0 0 0 -0.49,-0.09 h -0.06 a 1.65,1.65 0 0 0 -0.48,0.1 h -0.07 a 1.52,1.52 0 0 0 -0.3,0.17 25.54,25.54 0 0 1 -30.49,0 1.28,1.28 0 0 0 -0.3,-0.17 h -0.06 a 1.38,1.38 0 0 0 -0.49,-0.1 v 0 a 1.71,1.71 0 0 0 -0.5,0.1 v 0 a 1.6,1.6 0 0 0 -0.44,0.29 v 0 l -5.39,5.39 a 1.45,1.45 0 0 0 0,2.06 l 3.19,3.19 -3.55,3.55 -11.92,-11.93 3.55,-3.55 3.19,3.2 a 1.47,1.47 0 0 0 2.06,0 l 5.39,-5.4 v 0 a 1.39,1.39 0 0 0 0.28,-0.43 v 0 a 1.37,1.37 0 0 0 0.09,-0.49 v -0.06 a 1.36,1.36 0 0 0 -0.09,-0.48 0.64,0.64 0 0 1 0,-0.07 2.28,2.28 0 0 0 -0.17,-0.3 25.54,25.54 0 0 1 0,-30.49 1.28,1.28 0 0 0 0.17,-0.3 v -0.06 a 1.64,1.64 0 0 0 0.1,-0.49 v -0.05 a 1.43,1.43 0 0 0 -0.09,-0.5 v -0.05 a 1.44,1.44 0 0 0 -0.28,-0.43 v 0 l -5.39,-5.39 a 1.45,1.45 0 0 0 -2.06,0 l -3.19,3.19 -3.55,-3.55 11.92,-11.92 3.55,3.55 -3.19,3.19 a 1.45,1.45 0 0 0 0,2.06 l 5.39,5.39 v 0 a 1.67,1.67 0 0 0 0.43,0.28 h 0.06 a 1.32,1.32 0 0 0 0.48,0.09 h 0.06 a 1.37,1.37 0 0 0 0.49,-0.09 h 0.06 a 1.46,1.46 0 0 0 0.3,-0.17 25.54,25.54 0 0 1 30.49,0 1,1 0 0 0 0.23,0.11 l 0.14,0.08 a 1.48,1.48 0 0 0 0.5,0.1 v 0 a 1.38,1.38 0 0 0 0.49,-0.1 h 0.08 a 1.4,1.4 0 0 0 0.42,-0.28 v 0 l 5.39,-5.39 a 1.47,1.47 0 0 0 0,-2.06 l -3.19,-3.19 3.54,-3.55 11.93,11.92 -3.55,3.55 -3.19,-3.19 a 1.45,1.45 0 0 0 -2.06,0 l -5.39,5.39 v 0 a 1.33,1.33 0 0 0 -0.28,0.43 v 0.05 a 1.43,1.43 0 0 0 -0.09,0.5 0.43,0.43 0 0 0 0,0.05 1.64,1.64 0 0 0 0.1,0.49 v 0.06 a 1.28,1.28 0 0 0 0.17,0.3 25.54,25.54 0 0 1 0,30.49 1.34,1.34 0 0 0 -0.17,0.31 v 0.05 a 1.71,1.71 0 0 0 -0.1,0.49 0.13,0.13 0 0 0 0,0.06 1.37,1.37 0 0 0 0.09,0.49 v 0 a 1.23,1.23 0 0 0 0.28,0.43 v 0 l 5.39,5.39 a 1.46,1.46 0 0 0 1.94,-0.03 z m 12.73,-14.11 h -5 v -4.51 a 1.46,1.46 0 0 0 -1.46,-1.46 h -6 l 0.11,-2.46 -0.11,-2.46 h 6 a 1.46,1.46 0 0 0 1.46,-1.46 v -4.51 h 5 z m -48.77,-8.22 a 8.12,8.12 0 1 1 8.11,-8.11 8.12,8.12 0 0 1 -8.11,8.11 z m 0,-13.31 a 5.2,5.2 0 1 0 5.2,5.2 5.2,5.2 0 0 0 -5.2,-5.2 z m 15.84,28.85 a 6.85,6.85 0 1 1 6.85,-6.84 6.86,6.86 0 0 1 -6.85,6.84 z m 0,-10.77 a 3.93,3.93 0 1 0 3.93,3.93 3.93,3.93 0 0 0 -3.93,-3.93 z M 1398.45,519 a 13.19,13.19 0 0 1 -2.87,-0.87 l -10.13,-4.34 a 15.52,15.52 0 0 0 -3.4,-1 l -13.47,-2.53 a 1,1 0 0 1 -0.77,-1.14 l 2.42,-12.93 a 1,1 0 0 1 1.14,-0.78 v 0 l 10.86,2.12 a 1.88,1.88 0 0 0 1.23,-0.22 c 4.63,-2.73 8.77,-4.48 15.09,-4.77 4.3,-0.15 9,-1.68 14.34,-4.69 a 3.81,3.81 0 0 1 5.66,3.66 3.76,3.76 0 0 1 -1.37,2.6 c -4.7,3.88 -8.88,6.45 -12.71,7.83 5.11,4.74 17.6,4.86 26.88,4.95 a 4.15,4.15 0 0 1 0.86,8.2 l -22.38,4.86 a 13.42,13.42 0 0 1 -5.32,0.13 l -5.87,-1 z m -28.55,-10.51 12.51,2.35 a 18,18 0 0 1 3.81,1.16 l 10.13,4.34 a 12.05,12.05 0 0 0 2.63,0.78 l 5.87,1 v 0 a 11.53,11.53 0 0 0 4.57,-0.11 l 22.38,-4.86 a 2.21,2.21 0 0 0 1.71,-2.4 2.24,2.24 0 0 0 -2.17,-2 c -10.32,-0.09 -24.47,-0.23 -29.37,-6.77 a 1,1 0 0 1 0.51,-1.52 c 4,-1.14 8.37,-3.73 13.47,-7.93 a 1.86,1.86 0 0 0 -2.1,-3.06 c -5.63,3.16 -10.6,4.78 -15.21,4.93 -5.93,0.28 -9.7,1.86 -14.18,4.51 a 3.74,3.74 0 0 1 -2.57,0.46 v 0 l -9.9,-1.93 z m 56.33,-17.13 a 1,1 0 0 1 -0.78,-1.14 l 3.17,-16.87 a 1,1 0 0 1 1.91,0.36 l -3.17,16.87 a 1,1 0 0 1 -1.13,0.78 z"
       id="path38" />
    <path
       d="m 1452.28,529 -26,-4.89 a 1,1 0 0 1 -0.76,-1.23 l 2.45,-8.36 a 1,1 0 0 1 1.21,-0.66 1,1 0 0 1 0.66,1.21 l -2.15,7.33 23.9,4.49 3.16,-36.46 a 4.63,4.63 0 0 0 -3.76,-5 l -7.71,-1.44 a 4.62,4.62 0 0 0 -5.31,3.26 l -6.1,20.83 a 1,1 0 0 1 -1.87,-0.55 l 6.1,-20.83 a 6.56,6.56 0 0 1 7.54,-4.63 l 7.71,1.45 a 6.56,6.56 0 0 1 5.34,7.05 l -3.25,37.52 a 1,1 0 0 1 -1.16,0.91 z"
       id="path40" />
    <path
       d="m 1450.68,485.36 -7.11,-1.34 a 1,1 0 0 1 -0.78,-1.14 l 2.06,-11 a 1,1 0 0 1 1.14,-0.78 l 7.12,1.34 a 1,1 0 0 1 0.77,1.14 l -2.06,11 a 1,1 0 0 1 -1.14,0.78 z m -5.8,-3.07 5.2,1 1.71,-9.09 -5.2,-1 z"
       id="path42" />
    <path
       d="M 1459.17,475.56 1429.54,470 a 1,1 0 0 1 -0.34,-1.79 l 6.63,-4.14 a 1,1 0 0 1 0.69,-0.13 l 24,4.5 a 1,1 0 0 1 0.78,1.14 l -1,5.2 a 1,1 0 0 1 -1.13,0.78 z m -26.82,-7 26.22,4.93 0.62,-3.29 -22.65,-4.25 z m -8.11,33.37 a 1,1 0 0 1 -0.78,-1.14 l 1.11,-5.89 a 1,1 0 1 1 1.91,0.36 l -1.1,5.89 a 1,1 0 0 1 -1.14,0.78 z m -6.1,-28.82 a 3.85,3.85 0 0 1 -2.24,-1.33 c -3.89,-4.74 -7.7,-7.87 -11.65,-9.56 a 29.91,29.91 0 0 1 -12.34,-9.93 1.8,1.8 0 0 0 -1.06,-0.65 v 0 l -10.89,-2 v 0 a 1,1 0 0 1 -0.77,-1.13 l 2.42,-12.93 a 1,1 0 0 1 1.14,-0.78 l 13.47,2.53 a 16.16,16.16 0 0 0 3.54,0.27 l 11,-0.38 a 14.28,14.28 0 0 1 3.19,0.27 l 5.83,1.18 a 13.65,13.65 0 0 1 4.93,2.06 l 19.07,12.64 a 4.15,4.15 0 0 1 -3.77,7.34 c -8.68,-3.29 -20.36,-7.71 -26.85,-5.14 3.08,2.67 6,6.59 9,11.91 a 3.83,3.83 0 0 1 -1.51,5.21 3.9,3.9 0 0 1 -2.51,0.42 z m -26.93,-23.38 a 3.68,3.68 0 0 1 2.23,1.35 c 3.22,4.1 6.15,6.94 11.59,9.35 4.23,1.82 8.28,5.13 12.38,10.11 a 1.85,1.85 0 0 0 3.22,-0.66 1.81,1.81 0 0 0 -0.16,-1.42 c -3.22,-5.77 -6.39,-9.78 -9.67,-12.28 a 1,1 0 0 1 -0.39,-0.82 1,1 0 0 1 0.46,-0.78 c 7,-4.32 20.17,0.68 29.83,4.34 a 2.2,2.2 0 0 0 2,-3.89 l -19.08,-12.65 a 11.69,11.69 0 0 0 -4.23,-1.77 l -5.83,-1.18 a 11.45,11.45 0 0 0 -2.74,-0.23 l -11,0.37 a 17.63,17.63 0 0 1 -4,-0.3 l -12.51,-2.35 -2.07,11 9.93,1.79 z m -190.32,9.81 -5.45,-4.1 4.1,-5.44 -3.15,-2.37 -4.1,5.43 -5.44,-4.1 -2.38,3.15 5.45,4.1 -4.11,5.45 3.15,2.37 4.11,-5.45 5.45,4.11 z m -22.83,101.08 52.81,-70.05 -26.32,-19.84 13.15,-17.45 -29.46,-22.21 -13.16,17.45 -26.31,-19.84 -52.81,70 -6.18,-4.65 -2.37,3.15 40.21,30.31 14,10.58 40.21,30.31 2.38,-3.14 -6.18,-4.66 z m 47.28,-69.28 -50.43,66.91 -23.17,-17.47 50.44,-66.9 z m -75.8,-57.14 23.17,17.46 -50.44,66.9 -23.16,-17.46 z m -16.4,92.56 15.25,-20.23 a 4.8410175,4.8410175 0 1 1 7.73,5.83 l -15.24,20.23 -7.74,-5.84 z m 24.4,-24.33 a 8.79,8.79 0 0 0 -12.3,1.73 l -15.24,20.22 -4.57,-3.44 52.81,-70.05 10.78,-14.3 23.17,17.47 -10.78,14.3 -52.81,70 -4.6,-3.36 15.25,-20.23 a 8.79,8.79 0 0 0 -1.71,-12.34 z m 34.01,-30.5 -14,-10.58 -10.58,14 14.03,10.65 10.58,-14 z m -11.36,8.51 -7.73,-5.84 5.83,-7.73 7.73,5.83 z m -2.14,9.38 -14,-10.58 -10.58,14 14,10.58 z m -11.35,8.51 -7.7,-5.83 5.84,-7.74 7.73,5.84 z m 51.16,-6.56 -14,-10.58 -10.58,14 14,10.58 z m -11.35,8.51 -7.74,-5.84 5.84,-7.73 7.73,5.83 z m -2.14,9.38 -14,-10.58 -10.58,14 14,10.58 z m -11.37,8.51 -7.74,-5.83 5.83,-7.73 7.74,5.83 z m -2.12,9.39 -14,-10.58 -10.58,14 14,10.58 z m -11.36,8.51 -7.73,-5.83 5.83,-7.74 7.74,5.83 z m -28.33,-94.56 -10.58,14 14,10.58 10.58,-14 z m 2.68,19.09 -7.73,-5.84 5.86,-7.76 7.74,5.83 z m -26.75,12.84 14,10.58 10.58,-14 -14,-10.58 z m 11.36,-8.52 7.73,5.84 -5.83,7.73 -7.74,-5.83 z m -24.85,26.41 14,10.58 10.58,-14 -14,-10.58 z m 11.36,-8.51 7.73,5.83 -5.83,7.74 -7.74,-5.83 z m 230.74,-31.94 c -3,-4.09 -9.48,-5.91 -17.9,-5 l -25.55,-11 a 30.94,30.94 0 0 0 -9.93,-2.41 l -27.72,-2 c -7.09,-4.64 -13.7,-6 -18.21,-3.76 a 8.11,8.11 0 0 0 -4.51,7.07 c -0.25,5.52 4,11.61 11.38,16.41 7.25,14.42 15.1,23.65 33.18,28.05 18.08,4.4 29.29,-0.19 42.34,-9.67 8.78,-0.86 15.36,-4.32 17.68,-9.35 a 8.09,8.09 0 0 0 -0.76,-8.34 z m -99,-16.88 a 3.29,3.29 0 0 1 1.86,-3 c 2,-1 5.81,-0.84 11.09,2.06 l -6.17,11.39 c -5.13,-3.99 -6.92,-7.99 -6.8,-10.45 z m 40.89,39.58 c -16.46,-4 -23.33,-12.17 -30.14,-25.8 a 1.83,1.83 0 0 0 -0.14,-0.32 l 6.62,-12.23 28.07,2 a 25.73,25.73 0 0 1 8.37,2 l 25.85,11.11 0.27,13.92 a 2.11,2.11 0 0 0 -0.23,0.19 c -12.29,9.03 -22.21,13.14 -38.69,9.13 z m 54.53,-16.36 c -1,2.24 -4.47,5 -10.85,6.16 l -0.24,-12.94 c 6,-0.16 9.51,1.48 10.81,3.26 a 3.3,3.3 0 0 1 0.26,3.52 z m -53.24,11 c -11,-2.68 -16.32,-6.25 -21.72,-11.52 a 2.4,2.4 0 1 1 3.35,-3.43 c 4.92,4.79 9.48,7.85 19.5,10.29 10.02,2.44 15.48,1.82 22,-0.18 a 2.4,2.4 0 1 1 1.4,4.59 c -7.16,2.19 -13.44,2.94 -24.53,0.25 z m 2.23,-9.17 c -8.54,-2.08 -12.77,-4.28 -17.19,-7.39 a 2.3942065,2.3942065 0 1 1 2.75,-3.92 c 4,2.84 7.73,4.74 15.57,6.65 7.84,1.91 12,1.91 16.89,1.24 a 2.4014162,2.4014162 0 0 1 0.64,4.76 c -5.35,0.72 -10.12,0.74 -18.66,-1.34 z M 1316,451 a 2.16,2.16 0 0 1 -0.58,-0.22 54.37,54.37 0 0 0 -23.21,-5.64 2.4004218,2.4004218 0 0 1 -0.09,-4.8 58.82,58.82 0 0 1 25.58,6.22 2.4,2.4 0 0 1 -1.7,4.44 z m -130.2,-86.53 -4.44,-2 2,-4.44 a 1.7524911,1.7524911 0 1 0 -3.2,-1.43 l -2,4.43 -4.43,-2 a 1.755,1.755 0 0 0 -1.44,3.2 l 4.44,2 -2,4.44 a 1.7524911,1.7524911 0 0 0 3.2,1.43 l 2,-4.43 4.43,2 a 1.755,1.755 0 0 0 1.44,-3.2 z m 44.93,33 -8.86,-23.3 4.36,-9.71 a 8.9,8.9 0 0 0 0.71,-4.64 l -2.78,-24.12 a 5.34,5.34 0 0 1 0.43,-2.79 l 2.34,-5.21 a 6.28,6.28 0 0 0 6.66,-3.62 l 3.28,-7.31 a 6.3,6.3 0 0 0 -3.17,-8.32 l -29.62,-13.29 a 6.3,6.3 0 0 0 -8.32,3.17 l -3.28,7.31 a 6.3,6.3 0 0 0 1.72,7.39 l -2.33,5.2 a 5.12,5.12 0 0 1 -0.47,0.82 l -0.05,0.07 a 5.23,5.23 0 0 1 -1.28,1.29 l -19.86,14 a 8.92,8.92 0 0 0 -3,3.62 l -18.11,40.39 a 6.63,6.63 0 0 0 3.33,8.76 l 46.91,21 a 6.62,6.62 0 0 0 6.61,-0.7 13.36,13.36 0 0 0 24.77,-10 z m -35,-90.39 3.29,-7.32 a 2.78,2.78 0 0 1 3.68,-1.4 l 29.62,13.29 a 2.79,2.79 0 0 1 1.4,3.68 l -3.28,7.31 a 2.79,2.79 0 0 1 -3.68,1.41 l -29.62,-13.29 a 2.79,2.79 0 0 1 -1.46,-3.68 z m -3.59,16.2 a 9,9 0 0 0 1.19,-1 l 16.35,7.33 a 1.7524911,1.7524911 0 0 0 1.43,-3.2 l -15.82,-7.09 2.06,-4.59 26.32,11.81 -2.23,5 a 8.76,8.76 0 0 0 -0.71,4.63 l 2.78,24.13 a 5.36,5.36 0 0 1 0,1.06 l -52,-23.34 a 6,6 0 0 1 0.8,-0.71 z m 8.69,81.7 -46.9,-21 a 3.13,3.13 0 0 1 -1.57,-4.13 l 2.19,-4.88 31,13.88 a 1.7524911,1.7524911 0 1 0 1.43,-3.2 l -31,-13.88 13.78,-30.7 52.6,23.59 -2.36,5.25 a 13.37,13.37 0 0 0 -23.83,11.84 l 8.47,22.25 a 3.13,3.13 0 0 1 -3.86,1 z m 21,6.46 a 9.87,9.87 0 0 1 -12.73,-5.71 l -4.19,-11 11.27,-4.29 a 1.7532826,1.7532826 0 1 0 -1.24,-3.28 l -11.28,4.29 -4.18,-11 a 9.86,9.86 0 0 1 18.43,-7 l 9.62,25.27 a 9.84,9.84 0 0 1 -5.7,12.72 z M 1090.38,426.5 A 20,20 0 0 1 1074.6,403 l 0.66,-3.31 a 1.6,1.6 0 1 1 3.13,0.62 l -0.65,3.31 a 16.82,16.82 0 0 0 33,6.49 l 4.15,-21.11 a 12.870145,12.870145 0 0 1 25.25,5 l -1.09,5.51 a 1.5944435,1.5944435 0 0 1 -3.13,-0.61 l 1.08,-5.51 a 9.6813338,9.6813338 0 1 0 -19,-3.73 l -4.14,21.1 a 20,20 0 0 1 -23.48,15.74 z m 12.81,-49.66 v 0 a 1.58,1.58 0 0 1 -1.25,-1.88 l 6.26,-31.37 a 6.07,6.07 0 0 0 -4.78,-7.11 1.6003125,1.6003125 0 0 1 0.62,-3.14 9.28,9.28 0 0 1 7.3,10.88 l -6.27,31.37 a 1.59,1.59 0 0 1 -1.88,1.25 z m -42,-8.25 a 1.59,1.59 0 0 1 -1.26,-1.87 l 6.07,-31.41 a 9.26,9.26 0 0 1 10.87,-7.3 1.6,1.6 0 1 1 -0.62,3.13 6.08,6.08 0 0 0 -7.12,4.78 l -6.07,31.41 a 1.59,1.59 0 0 1 -1.87,1.26 z"
       id="path44" />
    <path
       d="m 1081.35,402.52 -9.67,-1.9 a 1.61,1.61 0 0 1 -1.26,-1.88 l 0.77,-3.92 a 26.32,26.32 0 0 1 -14.43,-28.73 1.6,1.6 0 0 1 1.88,-1.26 l 6.82,1.34 a 1.6,1.6 0 0 1 1.26,1.88 16.08,16.08 0 0 0 31.55,6.2 1.59,1.59 0 0 1 1.87,-1.26 l 6.83,1.34 a 1.6,1.6 0 0 1 1.26,1.88 26.31,26.31 0 0 1 -24.23,21.12 l -0.77,3.93 a 1.6,1.6 0 0 1 -1.88,1.26 z m -7.48,-4.73 6.53,1.28 0.71,-3.6 a 1.6,1.6 0 0 1 1.56,-1.29 23.1,23.1 0 0 0 22.06,-17 l -3.7,-0.73 a 19.27,19.27 0 0 1 -37.69,-7.41 l -3.69,-0.72 a 23.07,23.07 0 0 0 14,24.11 1.62,1.62 0 0 1 1,1.79 z m 59.95,20.03 a 10.3,10.3 0 1 1 12.1,-8.12 10.3,10.3 0 0 1 -12.1,8.12 z m 3.36,-17.08 a 7.11,7.11 0 1 0 5.6,8.34 7.11,7.11 0 0 0 -5.6,-8.34 z"
       id="path46" />
    <circle
       cx="1135.8101"
       cy="407.70999"
       r="3.53"
       id="circle48" />
    <path
       d="m 1026.07,461.94 a 12.8,12.8 0 0 1 -12.8,-21.14 l -14.44,-50.35 a 6.4710606,6.4710606 0 1 1 12.44,-3.57 l 14.45,50.35 a 12.81,12.81 0 0 1 0.35,24.71 z m -22.3,-77.73 a 4.63,4.63 0 0 0 -3.17,5.73 l 14.74,51.41 -0.4,0.38 a 11,11 0 1 0 9.85,-2.82 l -0.54,-0.12 -14.75,-51.41 a 4.64,4.64 0 0 0 -5.73,-3.17 z"
       id="path50" />
    <path
       d="m 1021.4,442.33 -6.46,-22.54 a 0.92100489,0.92100489 0 0 0 -1.77,0.51 l 6.46,22.53 a 7.43,7.43 0 1 0 1.77,-0.5 z m -9.85,-31.01 -5.34,1.53 a 0.915,0.915 0 0 1 -0.5,-1.76 l 5.33,-1.53 a 0.92,0.92 0 1 1 0.51,1.76 z m -5.05,-7.54 -2.67,0.76 a 0.92,0.92 0 1 1 -0.51,-1.76 L 1006,402 a 0.92100489,0.92100489 0 0 1 0.51,1.77 z m 0.28,-9.08 -5.33,1.54 a 0.92100489,0.92100489 0 0 1 -0.51,-1.77 l 5.34,-1.53 a 0.915,0.915 0 1 1 0.5,1.76 z M 977.89,355.63 H 970 a 1.46,1.46 0 0 0 -1.46,1.46 v 4.51 h -5 A 28.16,28.16 0 0 0 959.17,351 l 3.5,-3.51 3.19,3.19 a 1.45,1.45 0 0 0 2.06,0 l 5.61,-5.61 a 1.42,1.42 0 0 0 0.43,-1 1.45,1.45 0 0 0 -0.43,-1 l -14,-14 a 1.45,1.45 0 0 0 -2.06,0 l -5.61,5.61 a 1.45,1.45 0 0 0 0,2.06 l 3.19,3.19 -3.5,3.5 A 28.21,28.21 0 0 0 941,339.05 v -4.95 h 4.51 a 1.45,1.45 0 0 0 1.46,-1.45 v -7.94 a 1.46,1.46 0 0 0 -1.46,-1.46 h -19.77 a 1.46,1.46 0 0 0 -1.46,1.46 v 7.94 a 1.45,1.45 0 0 0 1.46,1.45 h 4.51 v 4.95 a 28.21,28.21 0 0 0 -10.57,4.38 l -3.5,-3.5 3.19,-3.19 a 1.45,1.45 0 0 0 0,-2.06 l -5.61,-5.61 a 1.45,1.45 0 0 0 -2.06,0 l -14,14 a 1.49,1.49 0 0 0 -0.42,1 1.45,1.45 0 0 0 0.42,1 l 5.61,5.61 a 1.45,1.45 0 0 0 2.06,0 l 3.2,-3.19 3.5,3.51 a 27.91,27.91 0 0 0 -4.38,10.56 h -5 v -4.51 a 1.46,1.46 0 0 0 -1.46,-1.46 h -7.93 a 1.46,1.46 0 0 0 -1.46,1.46 v 19.78 a 1.46,1.46 0 0 0 1.46,1.46 h 7.93 a 1.46,1.46 0 0 0 1.46,-1.46 v -4.51 h 5 a 28.07,28.07 0 0 0 4.38,10.56 l -3.5,3.5 -3.19,-3.19 a 1.51,1.51 0 0 0 -2.06,0 l -5.62,5.61 a 1.49,1.49 0 0 0 0,2.07 l 14,14 a 1.45,1.45 0 0 0 2.06,0 l 5.61,-5.61 a 1.45,1.45 0 0 0 0,-2.06 l -3.19,-3.2 3.5,-3.51 a 28.07,28.07 0 0 0 10.57,4.39 v 4.95 h -4.51 a 1.45,1.45 0 0 0 -1.46,1.45 v 7.94 a 1.45,1.45 0 0 0 1.46,1.45 h 19.77 a 1.45,1.45 0 0 0 1.46,-1.45 v -7.94 a 1.46,1.46 0 0 0 -1.46,-1.46 H 941 v -4.94 a 28.07,28.07 0 0 0 10.57,-4.39 l 3.5,3.51 -3.19,3.19 a 1.45,1.45 0 0 0 0,2.06 l 5.61,5.61 a 1.45,1.45 0 0 0 2.06,0 l 14,-14 a 1.45,1.45 0 0 0 0,-2.06 l -5.61,-5.61 a 1.47,1.47 0 0 0 -2.07,0 l -3.19,3.19 -3.5,-3.5 a 27.89,27.89 0 0 0 4.38,-10.57 h 5 v 4.52 a 1.45,1.45 0 0 0 1.46,1.45 h 7.93 a 1.45,1.45 0 0 0 1.46,-1.45 v -19.74 a 1.46,1.46 0 0 0 -1.52,-1.46 z m -46.18,-24.44 h -4.52 v -5 h 16.86 v 5 h -4.51 a 1.46,1.46 0 0 0 -1.46,1.46 v 6 l -2.46,-0.11 -2.46,0.11 v -6 a 1.45,1.45 0 0 0 -1.45,-1.46 z m -30.42,38.25 a 1.46,1.46 0 0 0 -1.46,1.46 v 4.51 h -5 v -16.86 h 5 v 4.51 a 1.46,1.46 0 0 0 1.46,1.46 h 6 l -0.11,2.46 0.11,2.46 z m 38.25,33.33 h 4.51 v 5 h -16.86 v -5 h 4.52 a 1.45,1.45 0 0 0 1.45,-1.46 v -6 l 2.46,0.11 2.46,-0.11 v 6 a 1.46,1.46 0 0 0 1.46,1.46 z m 24.16,-13.25 3.19,-3.2 3.55,3.55 -11.92,11.93 -3.52,-3.55 3.19,-3.19 a 1.45,1.45 0 0 0 0,-2.06 l -5.39,-5.39 v 0 a 1.55,1.55 0 0 0 -0.43,-0.29 h -0.05 a 1.41,1.41 0 0 0 -0.49,-0.09 h -0.06 a 1.58,1.58 0 0 0 -0.48,0.1 h -0.07 a 2.28,2.28 0 0 0 -0.3,0.17 25.54,25.54 0 0 1 -30.49,0 1.52,1.52 0 0 0 -0.3,-0.17 h -0.06 a 1.43,1.43 0 0 0 -0.49,-0.1 v 0 a 1.71,1.71 0 0 0 -0.5,0.1 v 0 a 1.46,1.46 0 0 0 -0.44,0.29 v 0 l -5.55,5.38 a 1.45,1.45 0 0 0 0,2.06 l 3.19,3.19 -3.55,3.55 -11.92,-11.93 3.55,-3.55 3.19,3.2 a 1.45,1.45 0 0 0 1,0.42 1.49,1.49 0 0 0 1,-0.42 l 5.39,-5.4 a 1.32,1.32 0 0 0 0.29,-0.42 0.14,0.14 0 0 0 0,-0.06 1.64,1.64 0 0 0 0.1,-0.49 v -0.06 a 1.36,1.36 0 0 0 -0.09,-0.48 v -0.07 a 1.46,1.46 0 0 0 -0.16,-0.3 25.54,25.54 0 0 1 0,-30.49 1.78,1.78 0 0 0 0.17,-0.3 0.14,0.14 0 0 1 0,-0.06 1.37,1.37 0 0 0 0.09,-0.49 v -0.05 a 1.44,1.44 0 0 0 -0.1,-0.5 v -0.05 a 1.48,1.48 0 0 0 -0.29,-0.43 v 0 l -5.39,-5.39 a 1.45,1.45 0 0 0 -2.06,0 l -3.19,3.19 -3.55,-3.55 11.92,-11.92 3.55,3.55 -3.19,3.19 a 1.45,1.45 0 0 0 0,2.06 l 5.39,5.39 v 0 a 1.52,1.52 0 0 0 0.43,0.28 h 0.05 a 1.37,1.37 0 0 0 0.49,0.09 h 0.06 a 1.37,1.37 0 0 0 0.49,-0.09 h 0.06 a 2.28,2.28 0 0 0 0.3,-0.17 25.54,25.54 0 0 1 30.49,0 1.13,1.13 0 0 0 0.22,0.11 l 0.15,0.08 a 1.44,1.44 0 0 0 0.5,0.1 v 0 a 1.44,1.44 0 0 0 0.5,-0.1 h 0.08 a 1.4,1.4 0 0 0 0.42,-0.28 v 0 l 5.39,-5.39 a 1.45,1.45 0 0 0 0,-2.06 l -3.06,-3.25 3.55,-3.55 11.92,11.92 -3.54,3.55 -3.2,-3.19 a 1.45,1.45 0 0 0 -2.06,0 l -5.39,5.39 v 0 a 1.55,1.55 0 0 0 -0.29,0.43 v 0.05 a 1.71,1.71 0 0 0 -0.1,0.5 v 0.05 a 1.63,1.63 0 0 0 0.09,0.49 v 0.06 a 1,1 0 0 0 0.17,0.3 25.58,25.58 0 0 1 0,30.49 1.05,1.05 0 0 0 -0.17,0.31 v 0.05 a 1.69,1.69 0 0 0 -0.09,0.49 v 0.06 a 1.64,1.64 0 0 0 0.1,0.49 v 0.05 a 1.26,1.26 0 0 0 0.29,0.43 v 0 l 5.39,5.39 a 1.45,1.45 0 0 0 2.03,0.05 z m 12.74,-14.11 h -5 v -4.51 a 1.46,1.46 0 0 0 -1.46,-1.46 h -6 l 0.11,-2.46 -0.11,-2.46 h 6 a 1.46,1.46 0 0 0 1.46,-1.46 v -4.51 h 5 z m -48.77,-8.21 a 8.11,8.11 0 1 1 8.11,-8.11 8.12,8.12 0 0 1 -8.11,8.11 z m 0,-13.31 a 5.2,5.2 0 1 0 5.19,5.2 5.2,5.2 0 0 0 -5.19,-5.2 z m 15.84,28.85 a 6.85,6.85 0 1 1 6.84,-6.84 6.85,6.85 0 0 1 -6.84,6.84 z m 0,-10.77 a 3.93,3.93 0 1 0 3.93,3.93 3.93,3.93 0 0 0 -3.93,-3.9 z M 833.31,324.6 a 13.36,13.36 0 0 1 -2.87,-0.87 l -10.12,-4.34 a 15.68,15.68 0 0 0 -3.4,-1 l -13.47,-2.53 a 1,1 0 0 1 -0.78,-1.14 l 2.43,-12.93 a 1,1 0 0 1 1.13,-0.78 v 0 l 10.86,2.12 a 1.88,1.88 0 0 0 1.23,-0.22 30,30 0 0 1 15.1,-4.77 c 4.3,-0.15 9,-1.68 14.33,-4.69 a 3.81,3.81 0 0 1 4.3,6.26 c -4.71,3.88 -8.88,6.45 -12.72,7.83 5.12,4.74 17.61,4.86 26.89,4.95 a 4.15,4.15 0 0 1 0.86,8.2 l -22.38,4.86 a 13.47,13.47 0 0 1 -5.33,0.13 l -5.87,-1 z m -28.55,-10.51 12.51,2.35 a 18,18 0 0 1 3.81,1.16 l 10.13,4.34 a 12.22,12.22 0 0 0 2.63,0.78 l 5.87,1 v 0 a 11.58,11.58 0 0 0 4.58,-0.11 l 22.38,-4.86 a 2.2,2.2 0 0 0 -0.46,-4.35 c -10.33,-0.1 -24.47,-0.24 -29.38,-6.78 a 1,1 0 0 1 -0.14,-0.9 1,1 0 0 1 0.66,-0.62 c 4,-1.14 8.37,-3.73 13.47,-7.93 a 1.86,1.86 0 0 0 -2.1,-3.06 c -5.63,3.16 -10.61,4.78 -15.22,4.93 -5.93,0.28 -9.69,1.86 -14.18,4.51 a 3.72,3.72 0 0 1 -2.56,0.46 v 0 l -9.9,-1.93 z"
       id="path52" />
    <path
       d="m 861.09,297 a 1,1 0 0 1 -0.78,-1.14 L 863.48,279 a 1,1 0 0 1 1.14,-0.77 1,1 0 0 1 0.77,1.13 l -3.16,16.87 a 1,1 0 0 1 -1.14,0.77 z m 26.05,37.59 -26,-4.89 a 1,1 0 0 1 -0.75,-1.23 l 2.44,-8.36 a 1,1 0 0 1 1.21,-0.66 1,1 0 0 1 0.66,1.21 l -2.15,7.34 23.89,4.49 3.17,-36.49 a 4.63,4.63 0 0 0 -3.77,-5 l -7.71,-1.44 a 4.63,4.63 0 0 0 -5.31,3.26 l -6.09,20.83 a 1,1 0 0 1 -1.21,0.66 1,1 0 0 1 -0.66,-1.21 L 871,292.32 a 6.57,6.57 0 0 1 7.54,-4.63 l 7.71,1.45 a 6.58,6.58 0 0 1 5.35,7.05 l -3.26,37.52 a 1,1 0 0 1 -1.2,0.88 z"
       id="path54" />
    <path
       d="m 885.55,291 -7.12,-1.34 a 1,1 0 0 1 -0.78,-1.14 l 2.07,-11 a 1,1 0 0 1 1.13,-0.78 l 7.12,1.34 a 1,1 0 0 1 0.78,1.14 l -2.07,11 a 1,1 0 0 1 -1.13,0.78 z m -5.8,-3.07 5.2,1 1.7,-9.09 -5.2,-1 z"
       id="path56" />
    <path
       d="m 894,281.2 -29.63,-5.56 a 1,1 0 0 1 -0.33,-1.79 l 6.62,-4.14 a 1,1 0 0 1 0.7,-0.13 l 24,4.5 a 1,1 0 0 1 0.78,1.14 l -1,5.2 A 1,1 0 0 1 894,281.2 Z m -26.81,-7 26.21,4.93 0.62,-3.29 -22.65,-4.25 z m -8.08,33.37 a 1,1 0 0 1 -0.78,-1.14 l 1.1,-5.89 a 1,1 0 0 1 1.92,0.36 l -1.11,5.89 a 1,1 0 0 1 -1.13,0.78 z M 853,278.75 a 3.84,3.84 0 0 1 -2.25,-1.33 c -3.89,-4.74 -7.7,-7.87 -11.64,-9.56 -5.8,-2.57 -9,-5.7 -12.35,-9.93 a 1.78,1.78 0 0 0 -1,-0.65 v 0 l -10.89,-2 v 0 a 0.93,0.93 0 0 1 -0.62,-0.4 1,1 0 0 1 -0.16,-0.73 l 2.43,-12.93 a 1,1 0 0 1 1.14,-0.78 l 13.4,2.56 a 16.25,16.25 0 0 0 3.55,0.27 l 11,-0.38 a 14.18,14.18 0 0 1 3.19,0.27 l 5.84,1.18 a 13.61,13.61 0 0 1 4.92,2.06 l 19.09,12.6 a 4.16,4.16 0 0 1 -3.78,7.34 c -8.67,-3.29 -20.35,-7.71 -26.84,-5.14 3.07,2.67 6,6.59 9,11.91 a 3.82,3.82 0 0 1 -1.52,5.21 3.88,3.88 0 0 1 -2.51,0.43 z m -26.93,-23.38 a 3.68,3.68 0 0 1 2.22,1.35 c 3.22,4.1 6.15,6.94 11.6,9.35 4.22,1.82 8.27,5.13 12.37,10.11 a 1.86,1.86 0 0 0 3.23,-0.66 1.85,1.85 0 0 0 -0.16,-1.42 c -3.23,-5.77 -6.4,-9.78 -9.68,-12.28 a 1,1 0 0 1 -0.38,-0.82 0.94,0.94 0 0 1 0.46,-0.78 c 6.94,-4.32 20.17,0.68 29.82,4.34 a 2.2,2.2 0 0 0 2,-3.89 L 858.49,248 a 11.69,11.69 0 0 0 -4.23,-1.77 l -5.84,-1.18 a 11.37,11.37 0 0 0 -2.73,-0.23 l -11,0.37 a 17.63,17.63 0 0 1 -4,-0.3 l -12.51,-2.35 -2.06,11 9.92,1.79 z m 124.75,-126.6 -6.64,1.54 -1.54,-6.63 -3.84,0.89 1.54,6.63 -6.65,1.55 0.9,3.84 6.64,-1.55 1.54,6.65 3.84,-0.89 -1.54,-6.65 6.65,-1.54 z m 62.88,82.37 -19.84,-85.46 -32.11,7.46 -4.94,-21.28 -35.94,8.34 4.94,21.29 -32.11,7.45 19.85,85.45 -7.55,1.75 0.89,3.84 49.11,-11.39 17.11,-4 49.06,-11.39 -0.89,-3.85 -7.54,1.75 z m -22.79,-80.72 19,81.61 -28.26,6.56 -19,-81.61 z m -92.47,21.47 28.26,-6.56 18.95,81.61 -28.26,6.56 z m 60.47,72 -5.73,-24.67 a 4.842,4.842 0 1 1 9.43,-2.2 l 5.73,24.68 z m -3,-34.33 a 8.8,8.8 0 0 0 -6.57,10.55 l 5.72,24.67 -5.57,1.3 -19.84,-85.46 -4,-17.44 28.26,-6.56 4,17.44 19.84,85.45 -5.57,1.3 -5.73,-24.68 a 8.78,8.78 0 0 0 -10.54,-6.6 z m -1.58,-45.68 -17.12,4 4,17.11 17.12,-4 -4,-17.12 z m -0.76,14.17 -9.44,2.19 -2.19,-9.44 9.44,-2.19 z m 5.83,7.66 -17.12,4 4,17.12 17.12,-4 z m -0.76,14.17 -9.44,2.19 -2.2,-9.44 9.44,-2.19 z m 27.79,-43.46 -17.12,4 4,17.12 17.12,-4 z m -0.76,14.17 -9.43,2.2 -2.19,-9.44 9.43,-2.19 z m 5.83,7.67 -17.12,4 4,17.12 17.12,-4 z m -0.76,14.17 -9.43,2.19 -2.19,-9.44 9.43,-2.19 z m 5.83,7.66 -17.12,4 4,17.12 17.12,-4 z m -0.76,14.17 -9.43,2.19 -2.19,-9.45 9.43,-2.19 z m -90.71,-38.95 4,17.12 17.12,-4 -4,-17.12 z m 16.37,10.19 -9.47,2.2 -2.19,-9.44 9.43,-2.19 z m -7.32,28.76 17.12,-4 -4,-17.12 -17.12,4 z m 0.76,-14.17 9.43,-2.19 2.2,9.44 -9.44,2.19 z m 4.31,36 17.12,-4 -4,-17.12 -17.12,4 z m 0.76,-14.17 9.43,-2.19 2.2,9.44 -9.44,2.19 z M 1132.9,168.2 c -3,-4.09 -9.48,-5.9 -17.9,-5 l -25.55,-11 a 30.7,30.7 0 0 0 -9.92,-2.42 l -27.73,-2 c -7.08,-4.64 -13.7,-6 -18.21,-3.75 a 8.09,8.09 0 0 0 -4.51,7.06 c -0.25,5.53 4,11.62 11.39,16.41 7.24,14.42 15.1,23.65 33.17,28.05 18.07,4.4 29.29,-0.19 42.34,-9.67 8.78,-0.86 15.37,-4.32 17.68,-9.34 a 8.09,8.09 0 0 0 -0.76,-8.34 z m -99,-16.88 a 3.26,3.26 0 0 1 1.86,-3 c 2,-1 5.81,-0.84 11.09,2.06 l -6.17,11.38 c -5.12,-3.98 -6.92,-7.97 -6.8,-10.44 z m 40.9,39.58 c -16.46,-4 -23.34,-12.16 -30.15,-25.79 a 1.64,1.64 0 0 0 -0.14,-0.33 l 6.63,-12.23 28.06,2 a 26,26 0 0 1 8.37,2 l 25.86,11.11 0.26,13.92 -0.23,0.19 c -12.34,9.04 -22.2,13.14 -38.68,9.13 z m 54.52,-16.36 c -1,2.24 -4.47,5 -10.84,6.16 l -0.25,-12.94 c 6,-0.16 9.52,1.48 10.81,3.26 a 3.28,3.28 0 0 1 0.26,3.52 z m -53.24,11.01 c -11,-2.69 -16.32,-6.26 -21.71,-11.52 a 2.401,2.401 0 1 1 3.35,-3.44 c 4.91,4.79 9.47,7.85 19.49,10.29 10.02,2.44 15.48,1.82 22,-0.18 a 2.4,2.4 0 0 1 1.4,4.59 c -7.16,2.2 -13.49,2.94 -24.53,0.26 z m 2.23,-9.18 c -8.54,-2.08 -12.77,-4.28 -17.19,-7.38 a 2.4,2.4 0 1 1 2.75,-3.93 c 4.05,2.84 7.73,4.74 15.57,6.65 7.84,1.91 12,1.91 16.89,1.24 a 2.4014162,2.4014162 0 0 1 0.64,4.76 c -5.35,0.72 -10.12,0.74 -18.66,-1.34 z m 14.88,-8.04 a 2.56,2.56 0 0 1 -0.58,-0.22 54.19,54.19 0 0 0 -23.21,-5.65 2.4004218,2.4004218 0 0 1 -0.09,-4.8 59.11,59.11 0 0 1 25.58,6.22 2.4,2.4 0 0 1 -1.7,4.45 z m -254.37,-92.24 -4.37,-2 2,-4.37 A 1.81,1.81 0 0 0 836,67.7 a 1.76,1.76 0 0 0 -2.8,0.56 l -2,4.44 -4.37,-2 a 1.81,1.81 0 0 0 -2.07,0.37 1.75,1.75 0 0 0 0.57,2.8 l 4.43,2 -2,4.37 a 1.81,1.81 0 0 0 0.37,2.07 1.76,1.76 0 0 0 2.8,-0.57 l 2,-4.43 4.44,2 a 1.76,1.76 0 0 0 2.47,-1.45 1.8,1.8 0 0 0 -1.02,-1.77 z m 45,33.04 -8.82,-23.3 4.36,-9.71 a 8.91,8.91 0 0 0 0.72,-4.64 L 877.3,47.36 a 5.34,5.34 0 0 1 0.43,-2.79 L 880,39.36 a 6.27,6.27 0 0 0 6.66,-3.62 L 890,28.43 A 6.3,6.3 0 0 0 886.84,20.1 L 857.17,6.82 A 6.29,6.29 0 0 0 848.85,10 l -3.28,7.31 a 6.28,6.28 0 0 0 1.72,7.38 l -2.29,5.2 a 5.17,5.17 0 0 1 -0.48,0.82 l -0.05,0.07 a 6.11,6.11 0 0 1 -1.4,1.38 L 823.29,46 a 8.9,8.9 0 0 0 -3,3.62 L 802.19,90 a 6.64,6.64 0 0 0 3.34,8.77 l 46.9,21 a 6.64,6.64 0 0 0 6.62,-0.7 13.36,13.36 0 0 0 24.77,-10 z m -35.05,-90.39 3.28,-7.32 a 2.79,2.79 0 0 1 3.68,-1.4 l 29.62,13.29 a 2.78,2.78 0 0 1 1.4,3.68 l -3.28,7.31 a 2.78,2.78 0 0 1 -3.68,1.4 L 850.17,22.42 a 2.79,2.79 0 0 1 -1.4,-3.68 z m -3.6,16.2 a 7.86,7.86 0 0 0 1.19,-1 l 16.28,7.3 a 1.78,1.78 0 0 0 2.07,-0.37 1.76,1.76 0 0 0 -0.56,-2.8 L 848.33,31 l 2.06,-4.59 26.31,11.76 -2.22,5 a 8.87,8.87 0 0 0 -0.72,4.63 l 2.78,24.12 a 5.47,5.47 0 0 1 0,1.07 l -52,-23.34 a 5.42,5.42 0 0 1 0.8,-0.71 z m 8.7,81.7 L 807,95.6 a 3.13,3.13 0 0 1 -1.57,-4.13 l 2.19,-4.88 30.88,13.85 a 1.81,1.81 0 0 0 2.07,-0.37 1.76,1.76 0 0 0 -0.56,-2.8 L 809,83.38 822.77,52.69 875.37,76.28 873,81.53 a 13.38,13.38 0 0 0 -24.28,3.68 13.74,13.74 0 0 0 0.56,8.45 l 8.35,22 a 3.13,3.13 0 0 1 -3.76,0.98 z m 21,6.46 a 9.88,9.88 0 0 1 -12.73,-5.71 l -4.18,-11 11.2,-4.27 a 1.78,1.78 0 0 0 1.2,-1.72 1.76,1.76 0 0 0 -2.38,-1.58 l -11.27,4.29 -4.1,-10.77 a 10.16,10.16 0 0 1 -0.49,-5.94 9.87,9.87 0 0 1 18.84,-1.3 l 9.53,25 a 10,10 0 0 1 0.49,5.93 9.85,9.85 0 0 1 -6.15,7.07 z m -529.23,52.12 -4.37,-2 2,-4.37 a 1.81,1.81 0 0 0 -0.37,-2.07 1.76,1.76 0 0 0 -2.8,0.57 l -2,4.43 -4.37,-2 a 1.81,1.81 0 0 0 -2.07,0.37 1.75,1.75 0 0 0 0.57,2.8 l 4.43,2 -2,4.37 a 1.81,1.81 0 0 0 0.37,2.07 1.75,1.75 0 0 0 2.8,-0.57 l 2,-4.43 4.44,2 a 1.76,1.76 0 0 0 2.47,-1.44 1.82,1.82 0 0 0 -1.1,-1.73 z m 45,33.03 -8.87,-23.25 4.36,-9.72 a 8.87,8.87 0 0 0 0.72,-4.63 l -2.78,-24.13 a 5.34,5.34 0 0 1 0.43,-2.79 l 2.33,-5.2 a 6.28,6.28 0 0 0 6.66,-3.63 l 3.28,-7.31 a 6.29,6.29 0 0 0 -3.16,-8.32 L 364,105.94 a 6.3,6.3 0 0 0 -8.32,3.17 l -3.28,7.31 a 6.28,6.28 0 0 0 1.72,7.39 l -2.33,5.2 a 6.07,6.07 0 0 1 -0.48,0.82 l -0.05,0.07 a 5.92,5.92 0 0 1 -1.4,1.38 l -19.74,13.88 a 8.8,8.8 0 0 0 -3,3.61 L 309,189.16 a 6.62,6.62 0 0 0 3.33,8.76 l 46.91,21 a 6.61,6.61 0 0 0 6.61,-0.69 13.37,13.37 0 0 0 24.78,-10 z m -35.05,-90.39 3.28,-7.31 a 2.78,2.78 0 0 1 3.68,-1.41 l 29.62,13.29 a 2.79,2.79 0 0 1 1.4,3.68 l -3.28,7.32 a 2.79,2.79 0 0 1 -3.68,1.4 L 357,121.54 a 2.79,2.79 0 0 1 -1.41,-3.68 z m -3.6,16.2 a 7.79,7.79 0 0 0 1.19,-1 l 16.28,7.31 a 1.81,1.81 0 0 0 2.07,-0.37 1.76,1.76 0 0 0 -0.56,-2.8 l -15.82,-7.1 2.05,-4.59 26.32,11.81 -2.22,5 a 8.91,8.91 0 0 0 -0.72,4.64 l 2.78,24.04 a 4.79,4.79 0 0 1 0,1.07 l -52,-23.35 a 5.42,5.42 0 0 1 0.8,-0.71 z m 8.69,81.7 -46.9,-21 a 3.12,3.12 0 0 1 -1.57,-4.12 l 2.19,-4.89 30.88,13.85 a 1.79,1.79 0 0 0 2.07,-0.36 1.76,1.76 0 0 0 -0.56,-2.81 l -31,-13.88 13.77,-30.7 52.6,23.59 -2.35,5.25 a 13.38,13.38 0 0 0 -24.28,3.68 13.78,13.78 0 0 0 0.56,8.46 l 8.35,22 a 3.12,3.12 0 0 1 -3.76,0.93 z m 21,6.47 a 9.89,9.89 0 0 1 -12.73,-5.71 l -4.18,-11 11.2,-4.26 a 1.79,1.79 0 0 0 1.2,-1.73 1.76,1.76 0 0 0 -2.38,-1.58 l -11.27,4.29 -4.1,-10.77 a 10.15,10.15 0 0 1 -0.49,-5.94 9.87,9.87 0 0 1 18.84,-1.3 l 9.53,25.05 a 10.15,10.15 0 0 1 0.49,5.94 9.89,9.89 0 0 1 -6.14,7.01 z m 349.2,-87.72 A 20,20 0 0 1 715.1,111 l 0.65,-3.32 a 1.6003125,1.6003125 0 0 1 3.14,0.62 l -0.65,3.32 a 16.8151,16.8151 0 1 0 33,6.48 L 755.38,97 a 12.870145,12.870145 0 1 1 25.25,5 l -1.08,5.51 a 1.6003125,1.6003125 0 0 1 -3.14,-0.62 l 1.09,-5.51 a 9.6813338,9.6813338 0 0 0 -19,-3.73 l -4.15,21.11 a 20,20 0 0 1 -23.47,15.75 z m 12.8,-49.65 v 0 A 1.6,1.6 0 0 1 742.42,83 l 6.27,-31.37 a 6.06,6.06 0 0 0 -4.78,-7.11 1.6,1.6 0 0 1 0.61,-3.14 9.26,9.26 0 0 1 7.3,10.87 l -6.27,31.35 a 1.59,1.59 0 0 1 -1.87,1.26 z m -42,-8.25 a 1.6,1.6 0 0 1 -1.26,-1.87 l 6.07,-31.41 a 9.27,9.27 0 0 1 10.87,-7.33 1.6003125,1.6003125 0 1 1 -0.62,3.14 6.06,6.06 0 0 0 -7.11,4.78 l -6.07,31.4 a 1.61,1.61 0 0 1 -1.87,1.27 z"
       id="path58" />
    <path
       d="m 721.85,110.53 -9.67,-1.9 a 1.6,1.6 0 0 1 -1.26,-1.88 l 0.77,-3.92 a 26.3,26.3 0 0 1 -14.43,-28.72 1.59,1.59 0 0 1 1.87,-1.26 l 6.87,1.34 a 1.6,1.6 0 0 1 1.26,1.88 16.071,16.071 0 1 0 31.54,6.19 1.6,1.6 0 0 1 1.84,-1.26 l 6.82,1.34 a 1.6,1.6 0 0 1 1.26,1.88 26.3,26.3 0 0 1 -24.23,21.13 l -0.77,3.92 a 1.59,1.59 0 0 1 -1.87,1.26 z m -7.49,-4.73 6.53,1.29 0.71,-3.6 a 1.59,1.59 0 0 1 1.56,-1.29 23.09,23.09 0 0 0 22.06,-17 l -3.69,-0.72 A 19.27,19.27 0 0 1 703.84,77 l -3.7,-0.73 a 23.11,23.11 0 0 0 14,24.12 1.59,1.59 0 0 1 1,1.78 z m 59.95,20.04 a 10.31,10.31 0 1 1 12.1,-8.13 10.32,10.32 0 0 1 -12.1,8.13 z m 3.36,-17.09 a 7.11,7.11 0 1 0 5.61,8.35 7.11,7.11 0 0 0 -5.61,-8.35 z"
       id="path60" />
    <circle
       cx="776.29999"
       cy="115.73"
       r="3.53"
       id="circle62" />
    <path
       d="M 675.56,151.57 A 12.8,12.8 0 0 1 662.77,130.44 L 648.32,80.08 a 6.4710606,6.4710606 0 0 1 12.44,-3.57 l 14.45,50.36 a 12.8,12.8 0 0 1 0.35,24.7 z m -22.3,-77.73 a 4.64,4.64 0 0 0 -3.17,5.73 l 14.74,51.43 -0.39,0.38 a 11,11 0 1 0 9.84,-2.82 L 673.74,128.45 659,77 a 4.65,4.65 0 0 0 -5.74,-3.16 z m 17.63,58.16 -6.46,-22.53 a 0.92,0.92 0 0 0 -1.77,0.5 l 6.46,22.54 a 7.4,7.4 0 1 0 1.77,-0.51 z"
       id="path64" />
    <path
       d="m 661,101 -5.34,1.53 a 0.92,0.92 0 0 1 -0.5,-1.77 l 5.33,-1.53 A 0.92100489,0.92100489 0 0 1 661,101 Z m -5,-7.59 -2.67,0.77 a 0.92100489,0.92100489 0 0 1 -0.51,-1.77 l 2.67,-0.76 a 0.92,0.92 0 1 1 0.51,1.76 z m 0.27,-9.07 -5.33,1.53 a 0.92100489,0.92100489 0 0 1 -0.51,-1.77 l 5.34,-1.53 a 0.92,0.92 0 0 1 0.5,1.77 z m -444.8,26.3 h -7.94 a 1.46,1.46 0 0 0 -1.46,1.46 v 4.51 h -4.94 A 28.07,28.07 0 0 0 192.74,106 l 3.51,-3.5 3.19,3.19 a 1.45,1.45 0 0 0 2.06,0 l 5.61,-5.61 a 1.45,1.45 0 0 0 0,-2.06 l -14,-14 a 1.49,1.49 0 0 0 -2.07,0 l -5.61,5.61 a 1.49,1.49 0 0 0 0,2.07 l 3.2,3.19 -3.51,3.5 a 28.23,28.23 0 0 0 -10.56,-4.38 v -5 h 4.51 a 1.46,1.46 0 0 0 1.46,-1.46 v -7.83 a 1.46,1.46 0 0 0 -1.46,-1.46 h -19.76 a 1.46,1.46 0 0 0 -1.46,1.46 v 7.93 a 1.46,1.46 0 0 0 1.46,1.46 h 4.51 v 5 a 28.16,28.16 0 0 0 -10.56,4.38 l -3.51,-3.5 3.19,-3.19 a 1.45,1.45 0 0 0 0,-2.06 l -5.61,-5.61 a 1.45,1.45 0 0 0 -2.06,0 l -14,14 a 1.45,1.45 0 0 0 0,2.06 l 5.61,5.61 a 1.45,1.45 0 0 0 2.06,0 l 3.19,-3.19 3.5,3.5 a 28.28,28.28 0 0 0 -4.38,10.57 h -5 v -4.58 a 1.46,1.46 0 0 0 -1.46,-1.46 h -7.93 a 1.46,1.46 0 0 0 -1.46,1.46 v 19.77 a 1.46,1.46 0 0 0 1.46,1.46 h 7.94 a 1.45,1.45 0 0 0 1.45,-1.46 v -4.51 h 5 a 28.07,28.07 0 0 0 4.39,10.57 l -3.51,3.5 -3.13,-3.19 a 1.49,1.49 0 0 0 -2.06,0 l -5.61,5.61 a 1.45,1.45 0 0 0 0,2.06 l 14,14 a 1.49,1.49 0 0 0 1,0.42 1.45,1.45 0 0 0 1,-0.42 l 5.61,-5.61 a 1.45,1.45 0 0 0 0,-2.06 l -3.19,-3.2 3.51,-3.5 a 27.84,27.84 0 0 0 10.56,4.38 v 5 h -4.51 a 1.47,1.47 0 0 0 -1.46,1.46 v 7.93 a 1.46,1.46 0 0 0 1.46,1.46 h 19.78 a 1.45,1.45 0 0 0 1.45,-1.46 v -7.93 a 1.45,1.45 0 0 0 -1.45,-1.46 h -4.52 v -5 a 28,28 0 0 0 10.57,-4.38 l 3.5,3.5 -3.19,3.19 a 1.47,1.47 0 0 0 0,2.07 l 5.61,5.61 a 1.49,1.49 0 0 0 2.07,0 l 14,-14 a 1.45,1.45 0 0 0 0,-2.06 l -5.61,-5.61 a 1.45,1.45 0 0 0 -2.06,0 l -3.19,3.19 -3.51,-3.5 a 28.07,28.07 0 0 0 4.39,-10.57 h 5 v 4.51 a 1.45,1.45 0 0 0 1.45,1.46 h 7.94 a 1.45,1.45 0 0 0 1.45,-1.46 V 112.1 a 1.45,1.45 0 0 0 -1.52,-1.46 z M 165.28,86.19 h -4.51 v -5 h 16.86 v 5 h -4.51 a 1.46,1.46 0 0 0 -1.46,1.46 v 6 l -2.46,-0.11 -2.46,0.11 v -6 a 1.46,1.46 0 0 0 -1.46,-1.46 z m -30.41,38.26 a 1.45,1.45 0 0 0 -1.46,1.45 v 4.52 h -5 v -16.86 h 5 v 4.51 a 1.46,1.46 0 0 0 1.46,1.46 h 6 l -0.11,2.46 0.11,2.46 z m 38.25,33.33 h 4.51 v 5 h -16.86 v -5 h 4.51 a 1.46,1.46 0 0 0 1.46,-1.46 v -6 l 2.46,0.11 2.46,-0.11 v 6 a 1.46,1.46 0 0 0 1.46,1.46 z m 24.16,-13.26 3.19,-3.19 3.55,3.55 -11.93,11.92 -3.54,-3.54 3.19,-3.2 a 1.45,1.45 0 0 0 0,-2.06 l -5.39,-5.39 v 0 a 1.6,1.6 0 0 0 -0.44,-0.29 v 0 a 1.58,1.58 0 0 0 -0.49,-0.1 h -0.06 a 1.63,1.63 0 0 0 -0.48,0.09 h -0.07 a 1.22,1.22 0 0 0 -0.29,0.17 25.59,25.59 0 0 1 -30.5,0 0.9,0.9 0 0 0 -0.3,-0.17 h -0.06 a 1.37,1.37 0 0 0 -0.49,-0.09 v 0 a 1.71,1.71 0 0 0 -0.5,0.1 v 0 a 1.4,1.4 0 0 0 -0.44,0.29 v 0 l -5.57,5.39 a 1.45,1.45 0 0 0 0,2.06 l 3.19,3.19 -3.55,3.55 -11.92,-11.92 3.55,-3.55 3.19,3.19 a 1.44,1.44 0 0 0 1,0.43 1.42,1.42 0 0 0 1,-0.43 l 5.39,-5.39 v 0 a 1.52,1.52 0 0 0 0.28,-0.43 v -0.05 a 1.37,1.37 0 0 0 0.09,-0.49 v -0.06 a 1.58,1.58 0 0 0 -0.1,-0.48 v -0.07 a 2.28,2.28 0 0 0 -0.17,-0.3 25.54,25.54 0 0 1 0,-30.49 1.34,1.34 0 0 0 0.17,-0.31 v -0.05 a 1.71,1.71 0 0 0 0.1,-0.49 v -0.06 a 1.41,1.41 0 0 0 -0.09,-0.49 v 0 a 1.33,1.33 0 0 0 -0.28,-0.43 l -5.39,-5.39 a 1.45,1.45 0 0 0 -2.06,0 l -3.19,3.19 -3.55,-3.55 11.98,-12.01 3.55,3.55 -3.19,3.19 a 1.45,1.45 0 0 0 0,2.06 l 5.39,5.39 v 0 a 1.48,1.48 0 0 0 0.43,0.29 h 0.06 a 1.58,1.58 0 0 0 0.48,0.1 h 0.07 a 1.36,1.36 0 0 0 0.48,-0.09 h 0.06 a 1.08,1.08 0 0 0 0.3,-0.16 25.55,25.55 0 0 1 30.5,0 1.13,1.13 0 0 0 0.22,0.11 l 0.14,0.08 a 1.54,1.54 0 0 0 0.51,0.1 v 0 a 1.38,1.38 0 0 0 0.49,-0.1 h 0.08 a 1.34,1.34 0 0 0 0.42,-0.28 v 0 L 191.74,96 a 1.49,1.49 0 0 0 0.42,-1 1.45,1.45 0 0 0 -0.42,-1 l -3.19,-3.2 3.55,-3.54 11.9,11.83 -3.55,3.55 -3.19,-3.19 a 1.45,1.45 0 0 0 -2.06,0 l -5.39,5.39 a 1.21,1.21 0 0 0 -0.29,0.43 v 0 a 1.37,1.37 0 0 0 -0.09,0.49 v 0.06 a 1.41,1.41 0 0 0 0.09,0.49 v 0.06 a 2.28,2.28 0 0 0 0.17,0.3 25.54,25.54 0 0 1 0,30.49 1.78,1.78 0 0 0 -0.17,0.3 v 0.06 a 1.64,1.64 0 0 0 -0.1,0.49 v 0.06 a 1.41,1.41 0 0 0 0.09,0.49 v 0.05 a 1.33,1.33 0 0 0 0.28,0.43 v 0 l 5.39,5.39 a 1.45,1.45 0 0 0 2.1,0.09 z M 210,130.42 h -5 v -4.52 a 1.45,1.45 0 0 0 -1.46,-1.45 h -6 l 0.11,-2.46 -0.11,-2.46 h 6 a 1.46,1.46 0 0 0 1.46,-1.46 v -4.51 h 5 z m -48.76,-8.22 a 8.11,8.11 0 1 1 8.11,-8.11 8.12,8.12 0 0 1 -8.11,8.11 z m 0,-13.3 a 5.2,5.2 0 1 0 5.2,5.19 5.2,5.2 0 0 0 -5.2,-5.19 z m 15.84,28.85 a 6.85,6.85 0 1 1 6.85,-6.85 6.85,6.85 0 0 1 -6.85,6.85 z m 0,-10.78 a 3.94,3.94 0 1 0 3.92,3.93 3.94,3.94 0 0 0 -3.92,-3.9 z m 442.53,98.09 a 14.31,14.31 0 0 1 -2.78,1.12 l -10.61,3 a 16.48,16.48 0 0 0 -3.3,1.32 l -12.07,6.5 a 1,1 0 0 1 -1.32,-0.4 L 583.31,225 a 1,1 0 0 1 -0.08,-0.75 1,1 0 0 1 0.47,-0.57 v 0 l 9.79,-5.17 a 1.9,1.9 0 0 0 0.82,-0.93 29.87,29.87 0 0 1 8.76,-13.19 c 3.26,-2.82 5.94,-6.95 8.23,-12.64 a 3.81,3.81 0 0 1 4.25,-2.33 3.75,3.75 0 0 1 2.45,1.58 3.8,3.8 0 0 1 0.57,2.88 c -1.24,6 -2.87,10.59 -5,14.07 6.95,0.48 16.75,-7.26 24,-13 a 4.15,4.15 0 0 1 5.81,5.85 L 629,218.62 a 13.65,13.65 0 0 1 -4.07,3.45 l -5.2,2.89 z m -28.83,9.71 11.22,-6 a 18.16,18.16 0 0 1 3.69,-1.49 l 10.61,-3 a 11.53,11.53 0 0 0 2.54,-1.05 l 5.21,-2.89 v 0 a 11.54,11.54 0 0 0 3.49,-3 l 14.38,-17.82 a 2.2,2.2 0 0 0 -3.09,-3.1 c -8.1,6.4 -19.2,15.17 -27.12,13.15 A 1,1 0 0 1 611,209 a 1,1 0 0 1 0.12,-0.9 c 2.38,-3.37 4.18,-8.15 5.52,-14.63 a 1.84,1.84 0 0 0 -0.28,-1.4 1.86,1.86 0 0 0 -3.28,0.34 c -2.4,6 -5.26,10.37 -8.75,13.38 -4.45,3.94 -6.38,7.54 -8.22,12.41 a 3.66,3.66 0 0 1 -1.71,2 v 0 l -8.92,4.7 z m 33.15,-48.64 a 1,1 0 0 1 -1.32,-0.4 l -8.11,-15.12 a 1,1 0 1 1 1.71,-0.92 l 8.12,15.12 a 1,1 0 0 1 -0.4,1.32 z"
       id="path66" />
    <path
       d="m 667.79,199.07 -23.31,12.51 a 1,1 0 0 1 -0.79,0.06 1,1 0 0 1 -0.57,-0.55 l -3.34,-8 a 1,1 0 1 1 1.8,-0.75 l 2.92,7 21.43,-11.49 -20.41,-30.38 a 4.62,4.62 0 0 0 -6,-1.5 l -6.91,3.7 a 4.64,4.64 0 0 0 -2.1,5.87 l 8.33,20 a 1,1 0 0 1 -0.53,1.28 1,1 0 0 1 -1.27,-0.53 l -8.33,-20 a 6.57,6.57 0 0 1 3,-8.33 l 6.9,-3.71 a 6.58,6.58 0 0 1 8.59,2.13 l 21,31.28 a 0.92,0.92 0 0 1 0.14,0.77 1,1 0 0 1 -0.55,0.64 z"
       id="path68" />
    <path
       d="m 639.21,166.12 -6.38,3.42 a 1,1 0 0 1 -1.32,-0.4 l -5.29,-9.86 a 1,1 0 0 1 0.4,-1.32 l 6.38,-3.42 a 1,1 0 0 1 1.32,0.39 l 5.29,9.87 a 1,1 0 0 1 -0.4,1.32 z m -6.44,1.24 4.66,-2.5 -4.37,-8.15 -4.66,2.51 z"
       id="path70" />
    <path
       d="m 639.67,153.17 -26.56,14.25 a 1,1 0 0 1 -1.38,-1.18 l 2.56,-7.38 a 1,1 0 0 1 0.46,-0.54 l 21.5,-11.53 a 1,1 0 0 1 1.32,0.39 l 2.5,4.67 a 1,1 0 0 1 -0.4,1.32 z m -25.28,11.35 23.5,-12.61 L 636.31,149 616,159.86 Z M 629,195.61 a 1,1 0 0 1 -1.32,-0.4 l -2.83,-5.28 a 1,1 0 0 1 1.72,-0.92 l 2.83,5.28 a 1,1 0 0 1 -0.4,1.32 z M 606.19,177 a 3.81,3.81 0 0 1 -2.58,0.37 c -6,-1.25 -10.94,-1.29 -15.07,-0.14 -6.13,1.64 -10.6,1.22 -15.85,0 a 1.77,1.77 0 0 0 -1.22,0.16 v 0 l -9.72,5.3 v 0 a 1,1 0 0 1 -0.74,0.07 0.94,0.94 0 0 1 -0.58,-0.47 l -6.22,-11.59 a 1,1 0 0 1 0.4,-1.32 l 12.07,-6.48 a 16.36,16.36 0 0 0 2.93,-2 l 8.34,-7.2 a 14.13,14.13 0 0 1 2.66,-1.8 l 5.28,-2.73 a 13.74,13.74 0 0 1 5.13,-1.49 l 22.79,-2.12 a 4.15,4.15 0 0 1 1.66,8.08 c -8.82,2.88 -20.69,6.77 -24.13,12.84 4.07,0.15 8.82,1.34 14.48,3.62 a 3.77,3.77 0 0 1 2.09,2.06 3.82,3.82 0 0 1 0,3 3.87,3.87 0 0 1 -1.72,1.84 z m -35.64,-1.32 a 3.71,3.71 0 0 1 2.58,-0.34 c 5.08,1.17 9.14,1.55 14.89,0 4.43,-1.24 9.67,-1.2 16,0.11 a 1.86,1.86 0 0 0 2.1,-1.1 1.8,1.8 0 0 0 0,-1.44 1.84,1.84 0 0 0 -1,-1 c -6.13,-2.46 -11.11,-3.6 -15.23,-3.49 a 1,1 0 0 1 -0.82,-0.4 0.94,0.94 0 0 1 -0.13,-0.89 c 2.7,-7.72 16.14,-12.12 26,-15.33 a 2.2,2.2 0 0 0 -0.88,-4.29 l -22.79,2.12 a 11.46,11.46 0 0 0 -4.4,1.28 l -5.29,2.73 a 11.63,11.63 0 0 0 -2.27,1.54 l -8.35,7.2 a 18,18 0 0 1 -3.28,2.26 l -11.22,6 5.3,9.87 8.86,-4.83 z m 4,-158.55 -6.65,1.54 -1.54,-6.63 -3.84,0.89 1.54,6.63 -6.64,1.55 0.89,3.84 6.64,-1.55 1.55,6.65 3.84,-0.89 -1.55,-6.65 6.65,-1.54 z"
       id="path72" />
    <path
       d="M 637.42,99.5 617.58,14 l -32.1,7.46 -5,-21.28 -35.89,8.38 4.94,21.29 -32.1,7.45 19.84,85.45 -7.54,1.75 0.9,3.84 49,-11.39 17.12,-4 49.05,-11.39 -0.8,-3.82 -7.54,1.75 z m -22.79,-80.72 19,81.61 -28.31,6.61 -19,-81.61 z m -92.47,21.47 28.26,-6.56 19,81.61 -28.26,6.56 z m 60.47,72 -5.73,-24.7 a 4.85,4.85 0 0 1 9.44,-2.2 l 5.73,24.65 -9.44,2.19 z m -3,-34.33 a 8.8,8.8 0 0 0 -6.57,10.55 l 5.73,24.67 -5.58,1.3 -19.84,-85.44 -4,-17.44 28.21,-6.56 4,17.44 19.85,85.45 -5.58,1.3 -5.73,-24.68 a 8.78,8.78 0 0 0 -10.49,-6.62 z m -1.58,-45.68 -17.12,4 4,17.12 17.11,-4 -4,-17.12 z m -0.76,14.17 -9.43,2.19 -2.2,-9.44 9.44,-2.16 z m 5.83,7.66 -17.12,4 4,17.12 17.12,-4 z m -0.76,14.17 -9.43,2.19 -2.2,-9.43 9.44,-2.19 z m 27.79,-43.46 -17.11,4 4,17.12 17.12,-4 z M 609.4,39 l -9.4,2.15 -2.19,-9.44 9.43,-2.19 z m 5.82,7.62 -17.12,4 4,17.12 17.12,-4 z M 614.47,60.79 605,63 l -2.19,-9.44 9.43,-2.19 z m 5.82,7.66 -17.12,4 4,17.12 17.12,-4 z m -0.75,14.17 -9.44,2.19 -2.19,-9.44 9.43,-2.19 z m -90.71,-38.95 4,17.12 17.12,-4 -4,-17.12 z m 16.36,10.19 -9.44,2.2 -2.19,-9.44 9.44,-2.19 z m -7.32,28.76 17.12,-4 -4,-17.12 -17.12,4 z m 0.76,-14.17 9.44,-2.19 2.19,9.44 -9.44,2.19 z m 4.31,36 17.12,-4 -4,-17.12 -17.11,4 z m 0.76,-14.17 9.44,-2.19 2.19,9.44 -9.44,2.19 z m 339.56,78.43 c -3,-4.09 -9.48,-5.9 -17.9,-5 l -25.55,-11 a 30.43,30.43 0 0 0 -9.93,-2.41 l -27.72,-2 c -7.09,-4.64 -13.7,-6 -18.21,-3.75 a 8.1,8.1 0 0 0 -4.51,7.07 c -0.25,5.52 4,11.61 11.38,16.4 7.25,14.42 15.1,23.66 33.18,28 18.08,4.34 29.29,-0.19 42.34,-9.67 8.78,-0.85 15.36,-4.32 17.68,-9.34 a 8.11,8.11 0 0 0 -0.76,-8.3 z m -99,-16.87 a 3.28,3.28 0 0 1 1.87,-3 c 2,-1 5.81,-0.84 11.09,2.06 L 791,162.28 c -5.09,-3.98 -6.88,-7.98 -6.77,-10.44 z m 40.9,39.57 c -16.46,-4 -23.34,-12.16 -30.14,-25.79 a 2.33,2.33 0 0 0 -0.14,-0.33 l 6.62,-12.23 28.07,2 a 25.75,25.75 0 0 1 8.37,2 l 25.85,11.11 0.27,13.92 a 2,2 0 0 0 -0.23,0.18 c -12.35,9.05 -22.22,13.15 -38.7,9.14 z m 54.53,-16.36 c -1,2.24 -4.47,5 -10.85,6.17 l -0.24,-12.95 c 6,-0.16 9.51,1.48 10.81,3.26 a 3.3,3.3 0 0 1 0.25,3.52 z m -53.26,11.01 c -11,-2.69 -16.32,-6.26 -21.71,-11.52 a 2.4,2.4 0 0 1 3.35,-3.43 c 4.91,4.79 9.48,7.85 19.5,10.29 10.02,2.44 15.48,1.81 22,-0.19 a 2.4,2.4 0 1 1 1.4,4.59 c -7.16,2.2 -13.5,2.94 -24.54,0.26 z m 2.24,-9.18 c -8.54,-2.07 -12.77,-4.28 -17.19,-7.38 a 2.4,2.4 0 0 1 2.75,-3.93 c 4,2.84 7.73,4.74 15.57,6.65 7.84,1.91 12,1.91 16.89,1.25 a 2.4,2.4 0 1 1 0.64,4.75 C 842,179 837.2,179 828.67,176.88 Z m 14.88,-8.04 a 2.56,2.56 0 0 1 -0.58,-0.22 54.19,54.19 0 0 0 -23.21,-5.62 2.4004218,2.4004218 0 0 1 -0.09,-4.8 59,59 0 0 1 25.58,6.23 2.4,2.4 0 0 1 -1.7,4.44 z m -114.05,70.38 -4.8,0.79 -0.79,-4.79 a 1.7533183,1.7533183 0 1 0 -3.46,0.57 l 0.79,4.8 -4.79,0.79 a 1.7533183,1.7533183 0 1 0 0.57,3.46 l 4.79,-0.79 0.8,4.79 a 1.7533183,1.7533183 0 1 0 3.46,-0.57 l -0.79,-4.8 4.79,-0.79 a 1.7533183,1.7533183 0 1 0 -0.57,-3.46 z m 55.69,2.65 -20.27,-14.51 -1.74,-10.5 a 8.8,8.8 0 0 0 -2,-4.26 L 745.55,194 a 5.46,5.46 0 0 1 -1.18,-2.57 l -0.93,-5.62 a 6.3,6.3 0 0 0 3.54,-6.71 l -1.31,-7.91 a 6.31,6.31 0 0 0 -7.24,-5.18 l -32,5.31 a 6.3,6.3 0 0 0 -5.18,7.24 l 1.31,7.91 a 6.29,6.29 0 0 0 5.52,5.2 l 0.93,5.63 a 6,6 0 0 1 0.06,0.95 v 0.08 a 5,5 0 0 1 -0.35,1.78 l -8.82,22.62 a 8.82,8.82 0 0 0 -0.49,4.66 l 7.24,43.67 a 6.64,6.64 0 0 0 7.62,5.46 L 765,268.15 a 6.61,6.61 0 0 0 5.12,-4.24 13.36,13.36 0 0 0 15.11,-22 z M 706,185.94 704.69,178 a 2.79,2.79 0 0 1 2.29,-3.21 l 32,-5.31 a 2.79,2.79 0 0 1 3.2,2.3 l 1.31,7.91 a 2.79,2.79 0 0 1 -2.29,3.2 l -32,5.31 a 2.79,2.79 0 0 1 -3.2,-2.26 z m 6,15.48 a 8.94,8.94 0 0 0 0.43,-1.51 L 730.06,197 a 1.7533183,1.7533183 0 0 0 -0.57,-3.46 l -17.11,2.83 -0.82,-4.95 28.44,-4.74 0.89,5.36 a 8.87,8.87 0 0 0 2,4.26 l 15.66,18.56 a 5.28,5.28 0 0 1 0.59,0.89 l -56.26,9.32 a 5.39,5.39 0 0 1 0.27,-1 z m 52.42,63.27 -50.71,8.41 a 3.13,3.13 0 0 1 -3.59,-2.57 l -0.88,-5.29 33.47,-5.54 a 1.76,1.76 0 0 0 -0.58,-3.47 l -33.46,5.55 -5.5,-33.19 56.83,-9.43 0.94,5.67 a 13.37,13.37 0 0 0 -13.31,23 l 19.37,13.9 a 3.13,3.13 0 0 1 -2.62,2.96 z m 21,-6.21 a 9.89,9.89 0 0 1 -13.77,2.28 l -9.56,-6.84 7,-9.81 a 1.76,1.76 0 0 0 -2.86,-2.05 l -7,9.81 -9.55,-6.87 a 9.86,9.86 0 1 1 11.47,-16 l 22,15.73 a 9.85,9.85 0 0 1 2.29,13.76 z M 452.71,109.12 A 20,20 0 0 1 436.93,85.63 l 0.66,-3.32 a 1.6,1.6 0 1 1 3.13,0.62 l -0.65,3.31 a 16.82,16.82 0 0 0 33,6.49 l 4.15,-21.11 a 12.870145,12.870145 0 0 1 25.25,5 l -1.09,5.52 a 1.6,1.6 0 1 1 -3.13,-0.62 L 499.33,76 a 9.6813338,9.6813338 0 1 0 -19,-3.73 l -4.15,21.1 a 20,20 0 0 1 -23.47,15.75 z m 12.8,-49.65 v 0 a 1.58,1.58 0 0 1 -1.25,-1.88 l 6.26,-31.37 a 6.07,6.07 0 0 0 -4.78,-7.11 1.6,1.6 0 1 1 0.62,-3.13 9.27,9.27 0 0 1 7.3,10.87 l -6.27,31.37 a 1.61,1.61 0 0 1 -1.88,1.25 z m -41.99,-8.26 a 1.59,1.59 0 0 1 -1.26,-1.87 l 6.06,-31.41 a 9.27,9.27 0 0 1 10.87,-7.3 1.5944435,1.5944435 0 0 1 -0.61,3.13 6.08,6.08 0 0 0 -7.12,4.78 L 425.39,50 a 1.59,1.59 0 0 1 -1.87,1.26 z"
       id="path74" />
    <path
       d="M 443.68,85.14 434,83.24 a 1.6,1.6 0 0 1 -1.26,-1.88 l 0.77,-3.92 A 26.3,26.3 0 0 1 419.08,48.71 1.6,1.6 0 0 1 421,47.45 l 6.82,1.34 a 1.6,1.6 0 0 1 1.26,1.88 16.072,16.072 0 1 0 31.54,6.2 1.6,1.6 0 0 1 1.88,-1.26 l 6.79,1.39 a 1.6,1.6 0 0 1 1.26,1.88 A 26.31,26.31 0 0 1 446.33,80 l -0.77,3.92 a 1.6,1.6 0 0 1 -1.88,1.22 z m -7.48,-4.73 6.53,1.28 0.71,-3.6 a 1.6,1.6 0 0 1 1.56,-1.29 23.09,23.09 0 0 0 22.06,-17 l -3.7,-0.73 a 19.27,19.27 0 0 1 -37.69,-7.4 l -3.7,-0.73 A 23.09,23.09 0 0 0 436,75 a 1.6,1.6 0 0 1 0.95,1.79 z m 59.95,20.03 a 10.3,10.3 0 1 1 12.1,-8.12 10.32,10.32 0 0 1 -12.1,8.12 z m 3.36,-17.08 a 7.11,7.11 0 1 0 5.6,8.34 7.11,7.11 0 0 0 -5.6,-8.34 z"
       id="path76" />
    <circle
       cx="498.14001"
       cy="90.330002"
       r="3.53"
       id="circle78" />
    <path
       d="M 376.29,88.15 A 12.8,12.8 0 0 1 363.49,67 L 349.05,16.66 a 6.4710606,6.4710606 0 0 1 12.44,-3.57 l 14.45,50.36 a 12.8,12.8 0 0 1 0.35,24.7 z M 354,10.42 a 4.64,4.64 0 0 0 -3.17,5.74 l 14.74,51.4 -0.4,0.39 A 11,11 0 1 0 375,65.12 L 374.46,65.01 359.72,13.6 A 4.64,4.64 0 0 0 354,10.42 Z M 371.62,68.54 365.16,46 a 0.92100489,0.92100489 0 0 0 -1.77,0.51 l 6.46,22.53 a 7.4,7.4 0 1 0 1.77,-0.51 z"
       id="path80" />
    <path
       d="m 361.77,37.54 -5.34,1.53 a 0.92,0.92 0 0 1 -0.5,-1.77 l 5.33,-1.53 a 0.92100489,0.92100489 0 0 1 0.51,1.77 z M 356.72,30 354.05,30.77 A 0.92100489,0.92100489 0 0 1 353.54,29 l 2.67,-0.76 a 0.92,0.92 0 0 1 1.14,0.63 0.91,0.91 0 0 1 -0.63,1.13 z m 0.28,-9.08 -5.33,1.53 a 0.92100489,0.92100489 0 0 1 -0.51,-1.77 l 5.34,-1.53 a 0.92,0.92 0 0 1 0.5,1.77 z M 61.19,23 h -5.64 a 1,1 0 0 0 -1,1 v 3.21 H 51 a 20,20 0 0 0 -3.12,-7.52 l 2.49,-2.49 2.27,2.27 a 1.05,1.05 0 0 0 1.47,0 l 4,-4 a 1.07,1.07 0 0 0 0.3,-0.74 1,1 0 0 0 -0.3,-0.73 l -10,-9.95 a 1,1 0 0 0 -1.47,0 l -4,4 a 1,1 0 0 0 -0.3,0.73 1.07,1.07 0 0 0 0.3,0.74 L 45,11.87 42.51,14.36 A 20,20 0 0 0 34.99,11.24 V 7.72 h 3.21 a 1,1 0 0 0 1,-1 V 1 a 1,1 0 0 0 -1,-1 H 24.08 a 1,1 0 0 0 -1,1 v 5.68 a 1,1 0 0 0 1,1 h 3.21 v 3.52 a 20,20 0 0 0 -7.52,3.12 L 17.28,11.83 19.55,9.6 a 1.05,1.05 0 0 0 0,-1.47 l -4,-4 a 1,1 0 0 0 -1.47,0 l -9.95,10 a 1,1 0 0 0 -0.31,0.73 1,1 0 0 0 0.31,0.74 l 4,4 a 1.05,1.05 0 0 0 1.47,0 l 2.27,-2.27 2.49,2.49 a 19.88,19.88 0 0 0 -3.12,7.52 H 7.72 v -3.26 a 1,1 0 0 0 -1,-1 H 1 a 1,1 0 0 0 -1,1 v 14.07 a 1,1 0 0 0 1,1 h 5.68 a 1,1 0 0 0 1,-1 v -3.21 h 3.52 a 20,20 0 0 0 3.12,7.52 L 11.87,45 9.6,42.68 a 1.07,1.07 0 0 0 -1.47,0 l -4,4 a 1,1 0 0 0 0,1.47 l 10,10 a 1,1 0 0 0 0.73,0.3 1,1 0 0 0 0.74,-0.3 l 4,-4 a 1.05,1.05 0 0 0 0,-1.47 l -2.27,-2.27 2.49,-2.49 A 20,20 0 0 0 27.29,51 v 3.52 h -3.21 a 1,1 0 0 0 -1,1 v 5.64 a 1,1 0 0 0 1,1 h 14.07 a 1,1 0 0 0 1,-1 v -5.61 a 1,1 0 0 0 -1,-1 H 34.94 V 51 a 20,20 0 0 0 7.52,-3.12 l 2.54,2.48 -2.27,2.27 a 1.05,1.05 0 0 0 0,1.47 l 4,4 a 1.06,1.06 0 0 0 0.74,0.3 1,1 0 0 0 0.73,-0.3 l 10,-10 a 1,1 0 0 0 0,-1.47 l -4,-4 a 1.05,1.05 0 0 0 -1.47,0 L 50.36,45 47.87,42.51 A 20,20 0 0 0 51,34.94 h 3.52 v 3.21 a 1,1 0 0 0 1,1 h 5.64 a 1,1 0 0 0 1,-1 V 24.08 A 1,1 0 0 0 61.19,23 Z M 28.33,5.65 H 25.12 V 2.07 h 12 V 5.65 H 33.9 a 1,1 0 0 0 -1,1 V 11 c -0.57,0 -1.16,-0.08 -1.75,-0.08 L 29.4,11 V 6.68 A 1,1 0 0 0 28.33,5.65 Z M 6.68,32.86 a 1,1 0 0 0 -1,1 v 3.21 H 2.07 v -12 h 3.58 v 3.21 a 1,1 0 0 0 1,1 H 11 L 10.92,31.03 11,32.78 Z M 33.9,56.58 h 3.21 v 3.57 h -12 v -3.57 h 3.21 a 1,1 0 0 0 1,-1 v -4.3 l 1.75,0.08 1.75,-0.08 v 4.27 a 1,1 0 0 0 1.08,1.03 z m 17.19,-9.43 2.27,-2.27 2.53,2.53 -8.48,8.48 -2.53,-2.52 2.27,-2.28 a 1,1 0 0 0 0,-1.46 l -3.83,-3.84 v 0 a 0.92,0.92 0 0 0 -0.31,-0.2 v 0 a 1.36,1.36 0 0 0 -0.35,-0.07 v 0 a 1.09,1.09 0 0 0 -0.35,0.07 v 0 a 1.55,1.55 0 0 0 -0.22,0.12 18.14,18.14 0 0 1 -21.69,0 2.39,2.39 0 0 0 -0.22,-0.12 v 0 a 1,1 0 0 0 -0.35,-0.07 v 0 a 1.36,1.36 0 0 0 -0.35,0.07 v 0 a 0.92,0.92 0 0 0 -0.31,0.2 v 0 l -3.83,3.84 a 1,1 0 0 0 0,1.46 l 2.27,2.27 -2.53,2.53 -8.74,-8.48 2.52,-2.53 2.27,2.27 a 1,1 0 0 0 0.74,0.3 1,1 0 0 0 0.73,-0.3 l 3.84,-3.83 a 1,1 0 0 0 0.2,-0.3 v 0 a 1.28,1.28 0 0 0 0.07,-0.34 v 0 a 1,1 0 0 0 -0.07,-0.35 v 0 a 1.55,1.55 0 0 0 -0.12,-0.22 18.14,18.14 0 0 1 0,-21.69 2.39,2.39 0 0 0 0.12,-0.22 1,1 0 0 0 0.07,-0.35 v 0 A 1.36,1.36 0 0 0 16.64,19.5 1,1 0 0 0 16.44,19.2 L 12.6,15.08 a 1,1 0 0 0 -1.46,0 l -2.28,2.27 -2.52,-2.53 8.48,-8.48 2.53,2.52 -2.27,2.27 a 1,1 0 0 0 0,1.47 l 3.83,3.84 v 0 a 1.21,1.21 0 0 0 0.3,0.2 v 0 a 1.36,1.36 0 0 0 0.35,0.07 v 0 a 1,1 0 0 0 0.35,-0.07 v 0 a 0.94,0.94 0 0 0 0.22,-0.12 18.18,18.18 0 0 1 21.69,0 1.29,1.29 0 0 0 0.16,0.09 l 0.11,0.05 a 1,1 0 0 0 0.35,0.07 v 0 a 1,1 0 0 0 0.35,-0.07 h 0.06 a 1,1 0 0 0 0.3,-0.2 v 0 l 3.83,-3.84 a 1,1 0 0 0 0.31,-0.73 1,1 0 0 0 -0.31,-0.74 l -2.1,-2.29 2.53,-2.52 8.48,8.48 -2.52,2.53 -2.27,-2.27 a 1,1 0 0 0 -1.47,0 l -3.84,3.83 a 1.21,1.21 0 0 0 -0.2,0.3 1.36,1.36 0 0 0 -0.07,0.35 v 0 a 1.09,1.09 0 0 0 0.07,0.35 0.92,0.92 0 0 0 0.13,0.21 18.19,18.19 0 0 1 0,21.7 1,1 0 0 0 -0.13,0.22 1,1 0 0 0 -0.07,0.35 v 0 a 1.45,1.45 0 0 0 0.07,0.35 v 0 a 0.92,0.92 0 0 0 0.2,0.31 l 3.84,3.83 a 1,1 0 0 0 1.46,0.27 z m 9.06,-10 H 56.58 V 33.9 a 1,1 0 0 0 -1,-1 h -4.3 l 0.08,-1.75 -0.08,-1.75 h 4.27 a 1,1 0 0 0 1,-1 v -3.28 h 3.57 z m -34.7,-5.88 a 5.77,5.77 0 1 1 5.77,-5.77 5.78,5.78 0 0 1 -5.77,5.77 z m 0,-9.47 a 3.7,3.7 0 1 0 3.7,3.7 3.7,3.7 0 0 0 -3.7,-3.7 z m 11.27,20.53 a 4.87,4.87 0 1 1 4.87,-4.87 4.88,4.88 0 0 1 -4.87,4.87 z m 0,-7.67 a 2.8,2.8 0 1 0 2.8,2.8 2.8,2.8 0 0 0 -2.8,-2.8 z M 259.29,113 a 13.71,13.71 0 0 1 -2.86,-0.88 l -10.13,-4.34 a 16.08,16.08 0 0 0 -3.4,-1 l -13.47,-2.53 a 1,1 0 0 1 -0.78,-1.14 l 2.43,-12.93 a 1,1 0 0 1 1.14,-0.78 v 0 l 10.87,2.12 a 1.84,1.84 0 0 0 1.22,-0.22 c 4.64,-2.73 8.78,-4.48 15.1,-4.77 4.3,-0.15 9,-1.68 14.33,-4.69 a 3.82,3.82 0 0 1 5.67,3.66 3.76,3.76 0 0 1 -1.41,2.6 c -4.71,3.88 -8.88,6.45 -12.71,7.83 5.11,4.74 17.6,4.86 26.88,4.95 a 4.15,4.15 0 0 1 0.86,8.2 l -22.38,4.86 a 13.47,13.47 0 0 1 -5.33,0.13 l -5.86,-1 z m -28.54,-10.52 12.51,2.35 a 18.64,18.64 0 0 1 3.81,1.16 l 10.12,4.34 a 12.14,12.14 0 0 0 2.64,0.78 l 5.86,1 v 0 a 11.58,11.58 0 0 0 4.58,-0.11 l 22.38,-4.86 a 2.2,2.2 0 0 0 -0.46,-4.35 c -10.33,-0.1 -24.47,-0.23 -29.37,-6.78 a 1,1 0 0 1 -0.15,-0.89 1,1 0 0 1 0.66,-0.63 c 4,-1.14 8.37,-3.73 13.47,-7.93 A 1.85,1.85 0 0 0 277.46,85.29 1.8,1.8 0 0 0 277,84 1.87,1.87 0 0 0 274.67,83.58 c -5.63,3.16 -10.6,4.78 -15.21,4.93 -5.94,0.28 -9.7,1.87 -14.19,4.51 a 3.72,3.72 0 0 1 -2.56,0.46 v 0 l -9.9,-1.93 z m 56.32,-17.06 a 1,1 0 0 1 -0.78,-1.14 l 3.17,-16.86 a 1,1 0 0 1 1.92,0.35 l -3.17,16.87 a 1,1 0 0 1 -1.14,0.78 z"
       id="path82" />
    <path
       d="m 313.12,123 -26,-4.88 a 1,1 0 0 1 -0.75,-1.24 l 2.45,-8.36 a 1,1 0 0 1 1.2,-0.66 1,1 0 0 1 0.66,1.21 l -2.14,7.33 23.89,4.49 3.17,-36.46 a 4.62,4.62 0 0 0 -3.77,-5 L 304.12,78 a 4.64,4.64 0 0 0 -5.32,3.26 l -6.09,20.83 a 1,1 0 1 1 -1.87,-0.55 l 6.1,-20.83 a 6.57,6.57 0 0 1 7.54,-4.63 l 7.7,1.45 a 6.56,6.56 0 0 1 5.35,7 l -3.26,37.53 a 1,1 0 0 1 -1.15,0.94 z"
       id="path84" />
    <path
       d="m 311.53,79.42 -7.12,-1.34 a 1,1 0 0 1 -0.78,-1.13 l 2.07,-11 a 1,1 0 0 1 1.14,-0.78 L 314,66.5 a 1,1 0 0 1 0.78,1.14 l -2.07,11 a 1,1 0 0 1 -1.18,0.78 z m -5.8,-3.07 5.2,1 1.71,-9.08 -5.21,-1 z"
       id="path86" />
    <path
       d="m 320,69.62 -29.62,-5.56 a 1,1 0 0 1 -0.78,-0.78 1,1 0 0 1 0.44,-1 l 6.62,-4.15 a 1.07,1.07 0 0 1 0.7,-0.13 l 24,4.51 a 1,1 0 0 1 0.78,1.13 l -1,5.2 A 1,1 0 0 1 320,69.62 Z m -26.81,-7 26.22,4.93 0.61,-3.29 L 297.38,60 Z M 285.09,96 a 1,1 0 0 1 -0.78,-1.14 L 285.42,89 a 1,1 0 0 1 1.13,-0.78 1,1 0 0 1 0.78,1.14 l -1.1,5.89 A 1,1 0 0 1 285.09,96 Z M 279,67.17 a 3.79,3.79 0 0 1 -2.24,-1.33 C 272.85,61.1 269,58 265.1,56.28 c -5.8,-2.57 -9,-5.7 -12.35,-9.93 a 1.72,1.72 0 0 0 -1.05,-0.64 v 0 l -10.89,-2 v 0 a 1,1 0 0 1 -0.78,-1.14 l 2.43,-12.93 a 1,1 0 0 1 1.14,-0.78 l 13.47,2.53 a 16.11,16.11 0 0 0 3.54,0.27 l 11,-0.38 a 14.18,14.18 0 0 1 3.19,0.27 l 5.84,1.18 a 13.78,13.78 0 0 1 4.92,2.06 l 19.08,12.65 a 4.15,4.15 0 0 1 -3.77,7.33 c -8.68,-3.28 -20.36,-7.7 -26.85,-5.14 3.07,2.67 6,6.59 9,11.91 a 3.74,3.74 0 0 1 0.33,2.91 3.8,3.8 0 0 1 -1.85,2.3 3.87,3.87 0 0 1 -2.5,0.42 z M 252.06,43.79 a 3.68,3.68 0 0 1 2.22,1.35 c 3.23,4.1 6.16,6.94 11.6,9.35 4.23,1.82 8.28,5.13 12.37,10.11 a 1.86,1.86 0 0 0 3.07,-2.08 c -3.23,-5.77 -6.39,-9.78 -9.68,-12.28 a 1,1 0 0 1 0.08,-1.6 c 6.94,-4.32 20.17,0.68 29.83,4.34 a 2.2,2.2 0 0 0 2,-3.89 L 284.47,36.44 a 11.87,11.87 0 0 0 -4.23,-1.77 l -5.83,-1.18 a 11.49,11.49 0 0 0 -2.74,-0.23 l -11,0.37 a 17.59,17.59 0 0 1 -4,-0.3 L 244.18,31 242.11,42 252,43.78 Z m 256.17,88.76 c -5.06,0 -10.32,4.28 -14.51,11.63 l -23.8,14.4 a 30.47,30.47 0 0 0 -7.73,6.67 l -17.75,21.39 c -7.89,3.07 -12.86,7.64 -13.64,12.63 a 8.06,8.06 0 0 0 3.13,7.78 c 4.34,3.42 11.76,3.51 20,0.29 15.94,2.49 28,1.47 42.12,-10.67 14.12,-12.14 16.88,-23.94 16.76,-40.07 4.41,-7.64 5.43,-15 2.68,-19.81 a 8.06,8.06 0 0 0 -7.26,-4.24 z m -71.34,70.73 a 3.28,3.28 0 0 1 -1.35,-3.26 c 0.34,-2.18 2.7,-5.22 8.13,-7.82 l 5.67,11.64 c -6.22,1.83 -10.51,0.96 -12.45,-0.56 z m 56,-10.24 c -12.83,11.05 -23.47,11.9 -38.51,9.51 a 2,2 0 0 0 -0.35,-0.08 l -6.11,-12.47 18,-21.66 a 25.67,25.67 0 0 1 6.53,-5.62 L 496.52,148.15 508,156 a 1.51,1.51 0 0 0 0,0.3 c 0.12,15.25 -2.28,25.7 -15.13,36.7 z m 18.42,-53.87 c 1.22,2.14 1.44,6.52 -1.3,12.41 l -10.67,-7.33 c 3.38,-5 6.74,-6.88 8.94,-6.9 a 3.3,3.3 0 0 1 3.01,1.82 z m -22.03,49.69 c -8.61,7.42 -14.59,9.64 -22,11 a 2.4,2.4 0 1 1 -0.85,-4.72 c 6.76,-1.21 11.9,-3.14 19.71,-9.87 7.81,-6.73 10.49,-11.54 12.68,-18 a 2.4001771,2.4001771 0 0 1 4.55,1.53 c -2.37,7.06 -5.49,12.64 -14.09,20.06 z m -6.17,-7.15 c -6.65,5.73 -10.91,7.89 -16,9.69 a 2.4021293,2.4021293 0 0 1 -1.6,-4.53 c 4.67,-1.64 8.36,-3.53 14.47,-8.8 6.11,-5.27 8.53,-8.63 10.84,-13 a 2.4,2.4 0 1 1 4.24,2.24 c -2.53,4.77 -5.29,8.69 -11.95,14.4 z m 2.12,-16.78 a 3.11,3.11 0 0 1 -0.52,0.34 41.9,41.9 0 0 0 -9.92,6.79 42.27,42.27 0 0 0 -8.18,8.8 2.4,2.4 0 1 1 -3.95,-2.72 58.89,58.89 0 0 1 19.94,-17.14 2.4,2.4 0 0 1 2.63,4 z M 175,1.5 c -4.77,-1.67 -11.16,0.52 -17.6,6 L 130.15,13 a 30.64,30.64 0 0 0 -9.54,3.64 l -24,14.1 C 88.19,30.92 82,33.54 79.54,38 a 8.08,8.08 0 0 0 0.3,8.38 c 2.92,4.69 9.88,7.29 18.68,7 14.15,7.77 25.86,10.91 43.23,4.27 17.37,-6.64 24,-16.78 29.38,-32 C 177.87,20 181.33,13.4 180.38,8 A 8.1,8.1 0 0 0 175,1.5 Z M 83.91,43.81 a 3.3,3.3 0 0 1 -0.17,-3.53 c 1.06,-1.93 4.31,-4 10.3,-4.6 l 1.39,12.88 C 89,48.17 85.21,45.9 83.91,43.81 Z M 140,53.18 c -15.82,6 -26.12,3.23 -39.45,-4.13 L 100.24,48.86 98.8,35 123.05,20.73 a 25.82,25.82 0 0 1 8,-3.08 l 27.59,-5.52 8.11,11.31 c 0,0.09 -0.06,0.19 -0.08,0.28 C 161.68,38.15 155.89,47.13 140,53.18 Z M 175.65,8.77 C 176.07,11.2 174.8,15.4 170.22,20 L 162.67,9.48 c 4.88,-3.55 8.68,-4.18 10.76,-3.45 a 3.27,3.27 0 0 1 2.22,2.74 z M 138.08,48 c -10.62,4.06 -17,4.11 -24.42,2.84 a 2.4,2.4 0 1 1 0.81,-4.73 c 6.77,1.16 12.26,1.09 21.89,-2.59 9.63,-3.68 13.78,-7.29 18,-12.66 a 2.405078,2.405078 0 0 1 3.76,3 C 153.48,39.77 148.69,44 138.08,48 Z m -3.37,-8.79 c -8.21,3.14 -13,3.73 -18.35,3.68 a 2.4,2.4 0 1 1 0,-4.8 c 4.95,0 9.06,-0.48 16.6,-3.36 7.54,-2.88 11.04,-5.23 14.64,-8.56 a 2.4,2.4 0 1 1 3.23,3.55 c -3.99,3.64 -7.91,6.36 -16.12,9.49 z m 7.68,-15.06 a 2.2,2.2 0 0 1 -0.6,0.14 41.94,41.94 0 0 0 -11.63,3 41.75,41.75 0 0 0 -10.68,5.5 2.401,2.401 0 0 1 -2.8,-3.9 46.56,46.56 0 0 1 11.77,-6.08 46.29,46.29 0 0 1 12.83,-3.31 2.4,2.4 0 0 1 1.11,4.63 z m 863.12,270.69 -4.23,-2.4 2.39,-4.22 a 1.75,1.75 0 1 0 -3,-1.73 l -2.4,4.23 -4.22,-2.4 a 1.7532399,1.7532399 0 1 0 -1.73,3.05 l 4.22,2.4 -2.44,4.23 a 1.75,1.75 0 1 0 3,1.73 l 2.4,-4.23 4.23,2.39 a 1.7532399,1.7532399 0 0 0 1.73,-3.05 z m 41.64,37.07 -6.65,-24 5.25,-9.27 a 8.7,8.7 0 0 0 1.15,-4.54 l -0.5,-24.28 a 5.34,5.34 0 0 1 0.69,-2.74 l 2.81,-5 a 6.28,6.28 0 0 0 7,-3 l 4,-7 a 6.3,6.3 0 0 0 -2.37,-8.58 l -28.24,-16 a 6.29,6.29 0 0 0 -8.58,2.37 l -4,7 a 6.31,6.31 0 0 0 1,7.52 l -2.81,5 a 6,6 0 0 1 -0.55,0.77 l -0.06,0.07 a 5.34,5.34 0 0 1 -1.39,1.16 l -21.09,12 a 8.94,8.94 0 0 0 -3.31,3.32 l -21.82,38.51 a 6.65,6.65 0 0 0 2.5,9 l 44.72,25.34 a 6.61,6.61 0 0 0 6.65,-0.07 13.37,13.37 0 0 0 25.61,-7.65 z m -26.42,-93.28 4,-7 a 2.79,2.79 0 0 1 3.8,-1 l 28.24,16 a 2.79,2.79 0 0 1 1,3.8 l -4,7 a 2.79,2.79 0 0 1 -3.8,1.05 l -28.24,-16 a 2.79,2.79 0 0 1 -1,-3.85 z m -5.1,15.8 a 9,9 0 0 0 1.28,-0.92 l 15.59,8.84 a 1.7532399,1.7532399 0 0 0 1.73,-3.05 l -15.09,-8.55 2.48,-4.37 25.1,14.22 -2.68,4.73 a 8.7,8.7 0 0 0 -1.15,4.54 l 0.51,24.28 a 6.24,6.24 0 0 1 -0.1,1.06 L 993.68,267.1 a 4.74,4.74 0 0 1 0.86,-0.63 z m 1,82.15 -44.73,-25.34 a 3.13,3.13 0 0 1 -1.18,-4.26 l 2.64,-4.66 29.51,16.73 a 1.76,1.76 0 0 0 1.73,-3.06 l -29.51,-16.72 16.59,-29.27 50.16,28.42 -2.84,5 a 13.37,13.37 0 0 0 -24.84,9.56 l 6.35,22.94 a 3.13,3.13 0 0 1 -3.89,0.66 z m 20.27,8.4 a 9.88,9.88 0 0 1 -12.14,-6.88 l -3.13,-11.33 11.62,-3.22 a 1.753,1.753 0 1 0 -0.93,-3.38 l -11.63,3.21 -3.15,-11.38 a 9.87,9.87 0 0 1 19,-5.25 l 7.2,26.06 a 9.85,9.85 0 0 1 -6.87,12.13 z"
       id="path88" />
  </g>
</svg>
